<?xml version="1.0" encoding="utf-8"?>
<!-- Generator: Adobe Illustrator 22.0.1, SVG Export Plug-In . SVG Version: 6.00 Build 0)  -->
<svg version="1.1" id="Слой_1" xmlns="http://www.w3.org/2000/svg" xmlns:xlink="http://www.w3.org/1999/xlink" x="0px" y="0px"
	 viewBox="0 0 97.6 97.6" style="enable-background:new 0 0 97.6 97.6;" xml:space="preserve">
<style type="text/css">
	.st0{fill:#FEFEFE;}
	.st1{fill:#1EDFFE;}
	.st2{fill:#1C62FB;}
	.st3{fill:#417DFE;}
	.st4{fill:#00C0EF;}
	.st5{fill:#DFF3FE;}
	.st6{fill:#BBDCFE;}
	.st7{fill:#3B5757;}
</style>
<g>
	<g>
		<path class="st0" d="M63.6,0.7c10.1,0,20.3,0.1,30.4-0.1c2.2,0,2.7,0.5,2.7,2.7c-0.1,28.4-0.1,56.7-0.1,85.1c-1.2-2.2-1-4.7-1.5-7
			c-0.8-4.4-1.6-9-6.5-10.8c-6.5-2.5-13.2-4.7-19.7-7c-0.5-1-1.4-0.6-2.2-0.6c-2.1-0.3-3.9-1.6-6.1-1.5c0-2.5,0-4.9,0.1-7.4
			c1.2-1,2.2-2.2,3.2-3.5c3.6-4.5,3.7-10.1,5.1-15.3c4.6-5.8,3.7-12.7,3.7-19.4c0-3.6-1.5-6.3-4.6-8.1c-0.8-0.4-1.7-0.7-1.4-1.8
			C67.3,3.2,65.3,2,63.6,0.7z"/>
		<path class="st0" d="M0.6,87.7c0-27.9,0-55.8-0.1-83.7c0-2.5,0.2-3.4,3.2-3.4c11,0.2,21.9,0.1,32.9,0.1c-6,2.3-11.2,5.9-11.8,12.7
			c-0.6,6.9-1.4,14.2,3.6,20.3c0.4,0.7,0.8,1.5,0.8,2.4c-0.2,7.2,1.9,13.6,7.6,18.4c0,2.3-0.1,4.6-0.1,6.8c-2.2-0.2-4.1,0.7-6,1.5
			c-0.8,0.1-1.7-0.4-2.2,0.6c-7,2-13.9,4.5-20.5,7.5c-2.7,1.2-4.1,3.6-5,6.4C1.7,80.9,2.2,84.5,0.6,87.7z"/>
		<path class="st1" d="M0.6,87.7c1.6-3.2,1.1-6.8,2.2-10.2c0.9-2.8,2.2-5.2,5-6.4c6.7-3,13.5-5.5,20.5-7.5c0.4,3.1-1.5,5.4-2.8,7.9
			c-1,2-0.8,3.3,0.8,4.9c5.8,5.4,11.5,10.9,17.2,16.4c0.5,0.5,1.3,0.7,1.9,1c2.9,3.2,3.3,3.2,6.2,0c7.4-5.9,14.6-12,20.4-19.5
			c0.9-1.2,0.1-2-0.5-3c-1.3-2.4-3.1-4.6-2.7-7.6c6.6,2.3,13.2,4.5,19.7,7c4.9,1.9,5.7,6.4,6.5,10.8c0.4,2.3,0.3,4.8,1.5,7
			c0,2,0,4,0,6c-2.1,1.8-4.4,2.3-7.2,2.3c-27.2-0.1-54.4-0.1-81.7,0c-2.8,0-5.1-0.5-7.2-2.3C0.6,92.2,0.6,89.9,0.6,87.7z"/>
		<path class="st2" d="M28.3,33.8c-5-6.1-4.2-13.4-3.6-20.3C25.4,6.6,30.6,3,36.6,0.7c9,0,18,0,27,0c1.7,1.4,3.7,2.5,3,5.3
			c-0.3,1.1,0.7,1.3,1.4,1.8c3.1,1.8,4.6,4.5,4.6,8.1c-0.1,6.7,0.9,13.6-3.7,19.4c0-2.6,0-5.2,0-7.8c0-8.3-10.4-15.9-18.4-13.2
			c-4.4,1.5-8.8,2.4-13.5,2.3c-5.2-0.1-8.5,3.4-8.6,8.7C28.3,28,28.3,30.9,28.3,33.8z"/>
		<path class="st0" d="M0.6,94.4c2.1,1.8,4.4,2.3,7.2,2.3c27.2-0.1,54.4-0.1,81.7,0c2.8,0,5.1-0.5,7.2-2.3c0.3,2,0.1,3.1-2.6,3.1
			c-30.2-0.1-60.5-0.1-90.7,0C0.5,97.5,0.3,96.5,0.6,94.4z"/>
		<path class="st3" d="M28.3,33.8c0-2.9,0-5.7,0-8.6c0.1-5.2,3.4-8.8,8.6-8.7c4.7,0.1,9.1-0.7,13.5-2.3c8-2.7,18.4,4.9,18.4,13.2
			c0,2.6,0,5.2,0,7.8c-1.3,5.2-1.4,10.8-5.1,15.3c-1,1.2-1.9,2.5-3.2,3.5c-4,3-7.7,6.4-13.3,5.9c-4.4-0.3-7.1-3.7-10.7-5.4
			c-5.6-4.9-7.8-11.2-7.6-18.4C29.1,35.2,28.8,34.5,28.3,33.8z"/>
		<path class="st4" d="M68.9,63.6c-0.4,3,1.4,5.2,2.7,7.6c0.5,1,1.4,1.9,0.5,3c-5.8,7.5-13,13.6-20.4,19.5c0-1.3,0-2.5,0-3.8
			c3.3-5.9,7-11.6,9.8-17.8C63,69,65,66,66.7,63C67.5,63,68.4,62.6,68.9,63.6z"/>
		<path class="st5" d="M66.7,63C65,66,63,69,61.6,72.2C58.7,78.3,55,84,51.7,89.9c-0.8-7.2,1.6-14.8-2.4-21.7
			c4.2-1.6,6.8-5.7,11.3-6.8C62.8,61.3,64.6,62.7,66.7,63z"/>
		<path class="st6" d="M60.6,61.4c-4.5,1-7.2,5.2-11.3,6.8c-0.5,0-0.9,0-1.4,0c-3.9-2.1-7-5.5-11.4-6.8c0-2.3,0.1-4.6,0.1-6.8
			c3.6,1.7,6.3,5,10.7,5.4c5.6,0.4,9.3-3,13.3-5.9C60.6,56.5,60.6,59,60.6,61.4z"/>
		<path class="st4" d="M45.5,93.7c-0.6-0.3-1.4-0.5-1.9-1c-5.8-5.4-11.4-11-17.2-16.4c-1.6-1.5-1.9-2.9-0.8-4.9
			c1.3-2.5,3.3-4.8,2.8-7.9c0.5-1,1.4-0.6,2.2-0.6c5,9,10,18,15,26.9C45.5,91.2,45.5,92.4,45.5,93.7z"/>
		<path class="st5" d="M45.5,89.9c-5-9-10-18-15-26.9c1.9-0.8,3.8-1.7,6-1.5c4.4,1.3,7.5,4.6,11.4,6.8c-2.3,4-2.6,8.4-2.4,12.9
			C45.7,84,45.5,87,45.5,89.9z"/>
		<path class="st7" d="M45.5,89.9c0-3,0.2-5.9,0.1-8.9c-0.2-4.5,0-8.9,2.4-12.9c0.5,0,0.9,0,1.4,0c4,6.9,1.6,14.5,2.4,21.7
			c0,1.3,0,2.5,0,3.8c-2.9,3.2-3.3,3.2-6.2,0C45.5,92.4,45.5,91.2,45.5,89.9z"/>
	</g>
</g>
</svg>
