<svg version="1.1" id="Capa_1" xmlns="http://www.w3.org/2000/svg" x="0" y="0" viewBox="0 0 512 512" xml:space="preserve"><style>.st0{fill:#1c62fb}.st4{fill:#76e1f7}.st5{fill:#ebeef2}</style><path class="st0" d="M418.3 249.1l-13-105.7-24.4 3-47.3-26.6c-5-2.8-10.8-4.1-16.6-3.5l-74.6 6.9c-9.2.8-17.4 6.1-22 14l-52.6 90.5c-3.9 6.7-.8 15.3 6.4 18l2.2.8c4.1 1.6 8.4 2.5 12.6 2.8l-6.7 5.8-13.3 11.6-37.9 32.3c-6.7 5.9-7.4 16.1-1.6 22.9l3.8 4.4c7.6 8.7 20.7 9.6 29.4 2l14.5 16.6c4.7 5.4 11.6 7.8 18.2 7 4-.5 7.9-2.1 11.1-5l14.5 16.6c4.7 5.4 11.6 7.8 18.3 7 4-.5 7.9-2.1 11.1-5l7.9 6.8c7.6 8.7 20.7 9.6 29.4 2l10.7-9.3 89.9-70 .1-.1h35.5l-5.6-45.8z"/><path class="st0" d="M379.7 267.8l-90 70.1-10.7 9.3c-8.7 7.6-21.8 6.7-29.4-2l-7.9-6.8c-3.2 2.8-7.1 4.5-11.1 5-6.6.8-13.5-1.6-18.3-7l-14.5-16.6c-3.2 2.8-7.1 4.5-11.1 5-6.6.8-13.5-1.6-18.2-7L154 301.2c-7.4 6.5-18.1 6.7-25.8 1.2-3.9 5.9-3.6 14 1.3 19.6l3.8 4.4c7.6 8.7 20.7 9.6 29.4 2l14.5 16.6c4.7 5.4 11.6 7.8 18.2 7 4-.5 7.9-2.1 11.1-5l14.5 16.6c4.7 5.4 11.6 7.8 18.3 7 4-.5 7.9-2.1 11.1-5l7.9 6.8c7.6 8.7 20.7 9.6 29.4 2l10.7-9.3 89.9-70 .1-.1h35.5l-3.9-31.9-40.3 4.7z"/><path d="M396.1 313.5L347.9 272l-13.4-11.5-9.6-8.3-41.2-35.5 4.8-40.5c1.6-13.7-7-26.5-20.3-30.2l-89.8-24.9c-9.5-2.6-19.5 1.8-24 10.6l-11.4 22-48.5-3.3-12.4 105.8-5.4 45.9 47.2 3.1.1.1 98.6 85 10.7 9.3c8.7 7.5 21.9 6.5 29.4-2.2l14.4-16.7c3.3 2.8 7.2 4.4 11.1 4.9 6.6.8 13.5-1.6 18.2-7.1l14.4-16.7c3.3 2.8 7.2 4.5 11.1 4.9 6.6.8 13.5-1.7 18.2-7.1l14.4-16.7c8.7 7.5 21.9 6.5 29.4-2.2l3.8-4.4c5.9-6.7 5.2-16.9-1.6-22.8z" fill="#417dff"/><path class="st0" d="M396.1 313.5l-14.7-12.6c4.8 6.3 4.7 15.3-.7 21.6l-4.1 4.7c-8 9.2-21.9 10.3-31.2 2.3l-15.3 17.7c-5 5.8-12.3 8.4-19.3 7.5-4.2-.5-8.4-2.2-11.8-5.2l-15.3 17.7c-5 5.8-12.3 8.3-19.3 7.5-4.2-.5-8.4-2.2-11.8-5.2l-15.3 17.7c-2.9 3.3-6.5 5.6-10.5 6.8l6.5 5.6c8.7 7.5 21.9 6.5 29.4-2.2l14.4-16.7c3.3 2.8 7.2 4.4 11.1 4.9 6.6.8 13.5-1.6 18.2-7.1l14.4-16.7c3.3 2.8 7.2 4.5 11.1 4.9 6.6.8 13.5-1.7 18.2-7.1l14.4-16.7c8.7 7.5 21.9 6.5 29.4-2.2l3.8-4.4c5.9-6.7 5.2-16.9-1.6-22.8z"/><path class="st0" d="M369.5 337.4l-26.4-22.8c-3.1-2.7-7.9-2.4-10.6.8-2.7 3.1-2.4 7.9.8 10.6l26.3 22.7 5-5.8c2 1.7 4.2 3 6.5 3.8 1.8-3 1.2-6.9-1.6-9.3zm-42.2 28.2c1.8-3.1 1.2-7.1-1.6-9.5L302 335.7c-3.1-2.7-7.9-2.4-10.6.8-2.7 3.1-2.4 7.9.8 10.6l23.7 20.4 4.9-5.7c2 1.7 4.2 3 6.5 3.8zm-200.9-60.5l-5.7 7.5c-6.2 8.2-4.6 19.9 3.6 26.1 8.2 6.2 19.9 4.6 26.1-3.6l5.7-7.5c6.2-8.2 4.6-19.9-3.6-26.1-8.2-6.2-19.9-4.6-26.1 3.6zm34.8 15.9l-10.8 14.2c-6.2 8.2-4.6 19.9 3.6 26.1 8.2 6.2 19.9 4.6 26.1-3.6l10.8-14.2c6.2-8.2 4.6-19.9-3.6-26.1-8.2-6.2-19.9-4.6-26.1 3.6zm33.6 17.4l-14.7 19.4c-6.2 8.2-4.6 19.9 3.6 26.1 8.2 6.2 19.9 4.6 26.1-3.6l14.7-19.4c6.2-8.2 4.6-19.9-3.6-26.1-8.1-6.3-19.8-4.6-26.1 3.6zm30.6 21.4l-15.5 20.5c-6.2 8.2-4.6 19.9 3.6 26.1 8.2 6.2 19.9 4.6 26.1-3.6l15.5-20.5c6.2-8.2 4.6-19.9-3.6-26.1-8.1-6.2-19.8-4.6-26.1 3.6zm155.5-213.4l-47.3-26.6c-5-2.8-10.8-4.1-16.6-3.5l-74.6 6.9c-9.2.8-17.4 6.1-22 14l-52.6 90.5c-3.9 6.7-.8 15.3 6.4 18l2.2.8c19.3 7.3 41 1.1 53.6-15.3l20.1-26.2s48.4 56.1 101.7-9.4"/><path d="M511.9 309.1l-24.7-200.8c-.2-2-1.3-3.8-2.8-5-1.6-1.2-3.6-1.8-5.5-1.5l-57.8 7.1c-15 1.8-25.7 15.6-23.9 30.6L417 300.7c1.7 13.9 13.6 24.1 27.2 24.1 1.1 0 2.2-.1 3.4-.2l57.8-7.1c4.1-.5 7.1-4.2 6.5-8.4z" fill="#17c6f7"/><path d="M511.9 309.1l-2.7-22c-1.2 1.8-3.2 3.1-5.5 3.4l-60.6 7.5c-1.2.1-2.4.2-3.5.2-10.2 0-19.4-5.4-24.6-13.8l2 16.4c1.7 13.9 13.6 24.1 27.2 24.1 1.1 0 2.2-.1 3.4-.2l57.8-7.1c4.1-.6 7.1-4.3 6.5-8.5z" fill="#17c6ed"/><path class="st4" d="M90.9 109l-57.8-7.1c-2-.2-4 .3-5.5 1.5-1.6 1.2-2.6 3-2.8 5L.1 309.1c-.5 4.1 2.4 7.9 6.5 8.4l57.8 7.1c1.1.1 2.3.2 3.4.2 13.6 0 25.5-10.2 27.2-24.1l19.8-161.2c1.8-15-8.9-28.7-23.9-30.5z"/><path class="st4" d="M.1 309.1l2.7-22c1.2 1.8 3.2 3.1 5.5 3.4l60.6 7.5c1.2.1 2.4.2 3.5.2 10.2 0 19.4-5.4 24.6-13.8l-2 16.4c-1.7 13.9-13.6 24.1-27.2 24.1-1.1 0-2.2-.1-3.4-.2l-57.8-7.1c-4.1-.6-7-4.3-6.5-8.5z"/><circle class="st5" cx="464" cy="277" r="14.5"/><circle class="st5" cx="47.2" cy="277" r="14.5"/></svg>