<svg version="1.1" id="Слой_1" xmlns="http://www.w3.org/2000/svg" x="0" y="0" viewBox="0 0 97.2 97" xml:space="preserve"><style>.st0{fill:#fefefe}.st3{fill:#417dfe}</style><path class="st0" d="M7.9 96.8c-2.5 0-5.9 1-7.2-.3-1.2-1.2-.3-4.7-.3-7.2C.4 60.5.4 31.7.3 2.9.3.7.7 0 3.1 0c19.1.1 38.2.1 57.2.1 0 .6.1 1.2.8 1.5v2.3c-.7.5-1 1.2-.3 1.8.7.7 1.3.3 1.8-.3h2.2c0 1.1.7 1.6 1.7 1.6 2.1.1 3.6.7 4.8 2.8.8 1.4 2.6 1.2 4 .4 1.3-.8 1.7-2.1 1.5-3.5-.3-1.7-1.4-2.8-3-2.7-2.9.2-4.2-1.5-5.2-3.8h26.2c1.7 0 2.4.1 2.4 2.2-.1 30.8-.1 61.6 0 92.4 0 1.9-.5 2.5-2.3 2.3-1.5-.2-3 0-4.5 0 .5-6.4-2.1-12.4-2.3-18.7.3-.5.5-1.1.8-1.6 1 0 2 0 3.6.2.3.1 0-.2-.2-.2-.8-.1-.1.4-.2.6.3.2.5.3.8.5.1-.2.2-.4-.3-.9-.6-.7-.6-1.2-.6-1.7 1.8.2 2.5-.8 2.2-2.5-.3-1.7-1.3-2.7-3-2.7-2.1 0-3.8.9-4.5 3-7.7-2.6-14.5-7.3-22.4-9.2-.1-2.2-.9-4-3-5.1-1.5-1.3-.5-3.1-.9-4.7 1.6-3.1 3-5.9 6.7-7.5 5-2.2 6-8.1 2.4-11.2.2-3.9 3-7.3 2.1-11.5-1.3-6.1-5.8-10-9.9-14.1-2.4-2.5-5.8-2.3-8.8-3.3-6-2.2-11.3-1-15.9 3.2-2 1.8-3.8 3.8-7 3.3 2.6 1 3.8 1.9.7 3.9-1.5 1-3 2.2-3.3 4.6-.6 4.9 1.1 9.2 2.3 13.7-2.2-.1-3.1.9-3 3.1.1 3.6 1.4 6.8 4.7 8.1 3.6 1.5 4.9 4.6 6.7 7.5 0 1.8-.1 3.6-.1 5.4-4.2-.5-3.2 2.9-3.8 5.1-7.3 1.7-13.5 5.9-20.5 8.4-1.6.6-1.9 2-2.7 3.1-.2-.3-.3-.7-.5-1-.6-1.2-1.3-2.7-3-1.7-.9.5-2.7.9-2.3 2.5.4 1.5 2 1.6 3.4 1.6h2.2c-.9 6.5-3.1 12.8-2.9 19.5z"/><path d="M64.2 63.7c8 1.9 14.8 6.6 22.4 9.2.2.7.3 1.4.5 2.1.1.3.3.6.4.9-.1.8-.5 1.8.6 2.3.2 6.3 2.8 12.3 2.3 18.7H55.9c.1-4.6-.7-9-1.3-13.5-.5-3.8-1.8-7.8 1.5-11.2 1.8.7 3.1 2 4.4 3.3 1.3 1.4 1.9.9 2.5-.7 1.2-3.7 1.2-7.4 1.2-11.1zM10.9 75.9c.9-1.1 1.1-2.5 2.7-3.1 6.9-2.5 13.2-6.7 20.5-8.4.2 4.3-.5 8.7 2.2 12.6 2.2-1.6 3.1-4.4 5.9-5 .8 2.1 2.7 3.8 2.2 6.5-1.1 6-2.2 12.1-2.1 18.3H7.8c-.1-6.7 2-13 2.9-19.5.1-.5.2-.9.2-1.4z" fill="#1ddffe"/><path d="M42.4 96.8c-.1-6.2.9-12.2 2.1-18.3.5-2.7-1.4-4.3-2.2-6.5.9-2.9 3.4-2 5.4-2.4h2.2c2.2.5 5.1-.9 6.1 2.4-3.3 3.3-2 7.4-1.5 11.2.6 4.5 1.5 9 1.3 13.5-4.4.1-8.9.1-13.4.1z" fill="#517a83"/><path class="st0" d="M68.6.1c1 2.3 2.3 4 5.2 3.8 1.7-.1 2.7 1 3 2.7.3 1.5-.2 2.8-1.5 3.5-1.4.8-3.2 1-4-.4-1.1-2.1-2.7-2.6-4.8-2.8-.9-.1-1.6-.5-1.7-1.6 1.6-1.6 1.5-3.4.8-5.3 1 .1 2 .1 3 .1z"/><path class="st0" d="M65.6.1c.7 1.9.9 3.7-.8 5.3h-2.2c-.3-.7-.8-1.2-1.5-1.5V1.6c.6-.3.7-.9.8-1.5h3.7z"/><path class="st0" d="M61.9.1c0 .6-.1 1.2-.8 1.5-.6-.3-.7-.9-.8-1.5h1.6z"/><path class="st3" d="M69.4 35.3c3.6 3.1 2.6 9-2.4 11.2-3.6 1.6-5.1 4.4-6.7 7.5-1.6.3-2.9 1.3-4.1 2.3-4 3.2-10 3.1-14.1.1-1.3-.9-2.4-2.1-4.1-2.4-1.8-2.9-3-6-6.7-7.5-3.3-1.3-4.6-4.5-4.7-8.1-.1-2.2.8-3.2 3-3.1 0 1.6.5 3.4 2.1 3.4 1.7 0 .6-2.1 1-3.1.3-.6.6-1.1.9-1.6 1.3-3.6 3.3-6.9 3.8-11.1 1.9 1.5 3.7 2.7 6 3 4.6.7 9.1-.7 13.7-.3 4.6.3 6.4 1.8 7.9 6.3 1.2 3.4-.6 6.4-.2 9.5-.6.1-1.3.2-1.2 1 .1.4.6.9.9.9.8.2.9-.6 1-1.2 2.7-1.5 2.4-4.7 3.9-6.8z"/><path d="M64.8 41.3c-.5-3.2 1.3-6.2.2-9.5-1.5-4.5-3.3-5.9-7.9-6.3-4.6-.3-9.1 1-13.7.3-2.3-.4-4.1-1.5-6-3-.5 4.2-2.5 7.5-3.8 11.1-.2.6-.6 1.1-.9 1.6-.5 1 .6 3.1-1 3.1-1.7 0-2.1-1.8-2.1-3.4-1.2-4.5-2.9-8.9-2.3-13.7.3-2.4 1.9-3.6 3.3-4.6 3.1-2 1.9-2.9-.7-3.9 3.2.5 5.1-1.5 7-3.3 4.6-4.2 9.9-5.5 15.9-3.2 2.9 1.1 6.3.9 8.8 3.3 4.1 4.1 8.6 8 9.9 14.1.9 4.1-2 7.5-2.1 11.5-1.5 2.1-1.2 5.3-3.8 6.8-.2-.4-.5-.6-.8-.9z" fill="#1c62fb"/><path d="M37.9 54c1.7.3 2.8 1.5 4.1 2.4 4.1 3 10.1 3.1 14.1-.1 1.3-1 2.5-2 4.1-2.3.4 1.5-.6 3.3.9 4.7-.9 2.7-2.3 4.8-4.7 6.7-2.1 1.6-5 2.1-6.6 4.4h-2.2c-.2-2-2.1-1.8-3.2-2.6-2.9-2-6.5-3.4-6.6-7.7.1-2 .1-3.7.1-5.5z" fill="#bbdcfe"/><path d="M37.9 59.3c.1 4.4 3.6 5.8 6.6 7.7 1.1.8 3.1.6 3.2 2.6-2 .4-4.5-.5-5.4 2.4-2.8.6-3.8 3.4-5.9 5-2.8-3.9-2.1-8.3-2.2-12.6.4-2.2-.6-5.5 3.7-5.1zm12 10.4c1.6-2.3 4.5-2.8 6.6-4.4 2.4-1.8 3.8-4 4.7-6.7 2 1.1 2.9 2.9 3 5.1 0 3.7 0 7.4-1.3 11-.6 1.7-1.2 2.1-2.5.7-1.3-1.4-2.6-2.7-4.4-3.3-1.1-3.3-4-1.9-6.1-2.4z" fill="#16c5ec"/><path class="st0" d="M87.1 74.9c-.2-.7-.3-1.4-.5-2.1.7-2.2 2.3-3.1 4.5-3 1.7 0 2.7 1.1 3 2.7.3 1.7-.4 2.6-2.2 2.5v-1.5c-.1-1-.3-1.9-1.5-.8-1.5.3-2.7.8-3.3 2.2zm-76.2 1c-.1.5-.1.9-.2 1.4H8.5c-1.4 0-3-.1-3.4-1.6-.4-1.5 1.3-1.9 2.3-2.5 1.7-1 2.4.5 3 1.7.2.3.3.6.5 1z"/><path class="st0" d="M91.9 73.6v3h-3c-.3-.6-.8-.7-1.4-.8-.1-.3-.3-.6-.4-.9.6-1.5 1.9-1.9 3.3-2.1.3.6.8.7 1.5.8zM61.1 3.8c.7.3 1.2.8 1.5 1.5-.5.7-1.2 1-1.8.3-.7-.6-.3-1.3.3-1.8z"/><path class="st0" d="M87.5 75.8c.6 0 1.1.2 1.4.8-.3.5-.5 1.1-.8 1.6-1.1-.6-.7-1.6-.6-2.4zM93 77c-.1.3-.2.5-.3.7-.3-.2-.5-.3-.8-.5.1-.2-.6-.7.2-.6.4 0 .7.3.9.4z"/><path class="st3" d="M64.8 41.3l.8.8c-.1.6-.2 1.3-1 1.2-.4-.1-.9-.6-.9-.9-.2-.9.5-1 1.1-1.1z"/><path class="st0" d="M91.9 73.6c-.6 0-1.2-.1-1.5-.8 1.2-1.1 1.3-.2 1.5.8z"/></svg>