<?xml version="1.0" encoding="utf-8"?>
<!-- Generator: Adobe Illustrator 22.0.1, SVG Export Plug-In . SVG Version: 6.00 Build 0)  -->
<svg version="1.1" id="Слой_1" xmlns="http://www.w3.org/2000/svg" xmlns:xlink="http://www.w3.org/1999/xlink" x="0px" y="0px"
	 viewBox="0 0 97.2 97" style="enable-background:new 0 0 97.2 97;" xml:space="preserve">
<style type="text/css">
	.st0{fill:#FEFEFE;}
	.st1{fill:#1DDFFE;}
	.st2{fill:#517A83;}
	.st3{fill:#417DFE;}
	.st4{fill:#1C62FB;}
	.st5{fill:#BBDCFE;}
	.st6{fill:#16C5EC;}
</style>
<g>
	<g>
		<path class="st0" d="M7.9,96.8c-2.5,0-5.9,1-7.2-0.3c-1.2-1.2-0.3-4.7-0.3-7.2c0-28.8,0-57.6-0.1-86.4C0.3,0.7,0.7,0,3.1,0
			c19.1,0.1,38.2,0.1,57.2,0.1c0,0.6,0.1,1.2,0.8,1.5c0,0.8,0,1.5,0,2.3c-0.7,0.5-1,1.2-0.3,1.8c0.7,0.7,1.3,0.3,1.8-0.3
			c0.8,0,1.5,0,2.2,0c0,1.1,0.7,1.6,1.7,1.6c2.1,0.1,3.6,0.7,4.8,2.8c0.8,1.4,2.6,1.2,4,0.4c1.3-0.8,1.7-2.1,1.5-3.5
			c-0.3-1.7-1.4-2.8-3-2.7c-2.9,0.2-4.2-1.5-5.2-3.8c8.7,0,17.5,0,26.2,0c1.7,0,2.4,0.1,2.4,2.2c-0.1,30.8-0.1,61.6,0,92.4
			c0,1.9-0.5,2.5-2.3,2.3c-1.5-0.2-3,0-4.5,0c0.5-6.4-2.1-12.4-2.3-18.7c0.3-0.5,0.5-1.1,0.8-1.6c1,0,2,0,3.6,0.2
			c0.3,0.1,0-0.2-0.2-0.2c-0.8-0.1-0.1,0.4-0.2,0.6c0.3,0.2,0.5,0.3,0.8,0.5c0.1-0.2,0.2-0.4-0.3-0.9c-0.6-0.7-0.6-1.2-0.6-1.7
			c1.8,0.2,2.5-0.8,2.2-2.5c-0.3-1.7-1.3-2.7-3-2.7c-2.1,0-3.8,0.9-4.5,3c-7.7-2.6-14.5-7.3-22.4-9.2c-0.1-2.2-0.9-4-3-5.1
			c-1.5-1.3-0.5-3.1-0.9-4.7c1.6-3.1,3-5.9,6.7-7.5c5-2.2,6-8.1,2.4-11.2c0.2-3.9,3-7.3,2.1-11.5c-1.3-6.1-5.8-10-9.9-14.1
			c-2.4-2.5-5.8-2.3-8.8-3.3c-6-2.2-11.3-1-15.9,3.2c-2,1.8-3.8,3.8-7,3.3c2.6,1,3.8,1.9,0.7,3.9c-1.5,1-3,2.2-3.3,4.6
			c-0.6,4.9,1.1,9.2,2.3,13.7c-2.2-0.1-3.1,0.9-3,3.1c0.1,3.6,1.4,6.8,4.7,8.1c3.6,1.5,4.9,4.6,6.7,7.5c0,1.8-0.1,3.6-0.1,5.4
			c-4.2-0.5-3.2,2.9-3.8,5.1c-7.3,1.7-13.5,5.9-20.5,8.4c-1.6,0.6-1.9,2-2.7,3.1c-0.2-0.3-0.3-0.7-0.5-1c-0.6-1.2-1.3-2.7-3-1.7
			c-0.9,0.5-2.7,0.9-2.3,2.5c0.4,1.5,2,1.6,3.4,1.6c0.7,0,1.5,0,2.2,0C9.9,83.8,7.7,90.1,7.9,96.8z"/>
		<path class="st1" d="M64.2,63.7c8,1.9,14.8,6.6,22.4,9.2c0.2,0.7,0.3,1.4,0.5,2.1c0.1,0.3,0.3,0.6,0.4,0.9
			c-0.1,0.8-0.5,1.8,0.6,2.3c0.2,6.3,2.8,12.3,2.3,18.7c-11.5,0-23,0-34.5,0c0.1-4.6-0.7-9-1.3-13.5c-0.5-3.8-1.8-7.8,1.5-11.2
			c1.8,0.7,3.1,2,4.4,3.3c1.3,1.4,1.9,0.9,2.5-0.7C64.2,71.1,64.2,67.4,64.2,63.7z"/>
		<path class="st1" d="M10.9,75.9c0.9-1.1,1.1-2.5,2.7-3.1c6.9-2.5,13.2-6.7,20.5-8.4c0.2,4.3-0.5,8.7,2.2,12.6
			c2.2-1.6,3.1-4.4,5.9-5c0.8,2.1,2.7,3.8,2.2,6.5c-1.1,6-2.2,12.1-2.1,18.3c-11.5,0-23,0-34.5,0c-0.1-6.7,2-13,2.9-19.5
			C10.8,76.8,10.9,76.4,10.9,75.9z"/>
		<path class="st2" d="M42.4,96.8c-0.1-6.2,0.9-12.2,2.1-18.3c0.5-2.7-1.4-4.3-2.2-6.5c0.9-2.9,3.4-2,5.4-2.4c0.7,0,1.5,0,2.2,0
			c2.2,0.5,5.1-0.9,6.1,2.4c-3.3,3.3-2,7.4-1.5,11.2c0.6,4.5,1.5,9,1.3,13.5C51.4,96.8,46.9,96.8,42.4,96.8z"/>
		<path class="st0" d="M68.6,0.1c1,2.3,2.3,4,5.2,3.8c1.7-0.1,2.7,1,3,2.7c0.3,1.5-0.2,2.8-1.5,3.5c-1.4,0.8-3.2,1-4-0.4
			c-1.1-2.1-2.7-2.6-4.8-2.8c-0.9-0.1-1.6-0.5-1.7-1.6c1.6-1.6,1.5-3.4,0.8-5.3C66.6,0.1,67.6,0.1,68.6,0.1z"/>
		<path class="st0" d="M65.6,0.1c0.7,1.9,0.9,3.7-0.8,5.3c-0.8,0-1.5,0-2.2,0c-0.3-0.7-0.8-1.2-1.5-1.5c0-0.8,0-1.5,0-2.3
			c0.6-0.3,0.7-0.9,0.8-1.5C63.1,0.1,64.4,0.1,65.6,0.1z"/>
		<path class="st0" d="M61.9,0.1c0,0.6-0.1,1.2-0.8,1.5c-0.6-0.3-0.7-0.9-0.8-1.5C60.9,0.1,61.4,0.1,61.9,0.1z"/>
		<path class="st3" d="M69.4,35.3c3.6,3.1,2.6,9-2.4,11.2c-3.6,1.6-5.1,4.4-6.7,7.5c-1.6,0.3-2.9,1.3-4.1,2.3
			c-4,3.2-10,3.1-14.1,0.1c-1.3-0.9-2.4-2.1-4.1-2.4c-1.8-2.9-3-6-6.7-7.5c-3.3-1.3-4.6-4.5-4.7-8.1c-0.1-2.2,0.8-3.2,3-3.1
			c0,1.6,0.5,3.4,2.1,3.4c1.7,0,0.6-2.1,1-3.1c0.3-0.6,0.6-1.1,0.9-1.6c1.3-3.6,3.3-6.9,3.8-11.1c1.9,1.5,3.7,2.7,6,3
			c4.6,0.7,9.1-0.7,13.7-0.3c4.6,0.3,6.4,1.8,7.9,6.3c1.2,3.4-0.6,6.4-0.2,9.5c-0.6,0.1-1.3,0.2-1.2,1c0.1,0.4,0.6,0.9,0.9,0.9
			c0.8,0.2,0.9-0.6,1-1.2C68.2,40.6,67.9,37.4,69.4,35.3z"/>
		<path class="st4" d="M64.8,41.3c-0.5-3.2,1.3-6.2,0.2-9.5c-1.5-4.5-3.3-5.9-7.9-6.3c-4.6-0.3-9.1,1-13.7,0.3c-2.3-0.4-4.1-1.5-6-3
			c-0.5,4.2-2.5,7.5-3.8,11.1c-0.2,0.6-0.6,1.1-0.9,1.6c-0.5,1,0.6,3.1-1,3.1c-1.7,0-2.1-1.8-2.1-3.4c-1.2-4.5-2.9-8.9-2.3-13.7
			c0.3-2.4,1.9-3.6,3.3-4.6c3.1-2,1.9-2.9-0.7-3.9c3.2,0.5,5.1-1.5,7-3.3c4.6-4.2,9.9-5.5,15.9-3.2c2.9,1.1,6.3,0.9,8.8,3.3
			c4.1,4.1,8.6,8,9.9,14.1c0.9,4.1-2,7.5-2.1,11.5c-1.5,2.1-1.2,5.3-3.8,6.8C65.4,41.8,65.1,41.6,64.8,41.3z"/>
		<path class="st5" d="M37.9,54c1.7,0.3,2.8,1.5,4.1,2.4c4.1,3,10.1,3.1,14.1-0.1c1.3-1,2.5-2,4.1-2.3c0.4,1.5-0.6,3.3,0.9,4.7
			c-0.9,2.7-2.3,4.8-4.7,6.7c-2.1,1.6-5,2.1-6.6,4.4c-0.7,0-1.5,0-2.2,0c-0.2-2-2.1-1.8-3.2-2.6c-2.9-2-6.5-3.4-6.6-7.7
			C37.9,57.5,37.9,55.8,37.9,54z"/>
		<path class="st6" d="M37.9,59.3c0.1,4.4,3.6,5.8,6.6,7.7c1.1,0.8,3.1,0.6,3.2,2.6c-2,0.4-4.5-0.5-5.4,2.4c-2.8,0.6-3.8,3.4-5.9,5
			c-2.8-3.9-2.1-8.3-2.2-12.6C34.6,62.2,33.6,58.9,37.9,59.3z"/>
		<path class="st6" d="M49.9,69.7c1.6-2.3,4.5-2.8,6.6-4.4c2.4-1.8,3.8-4,4.7-6.7c2,1.1,2.9,2.9,3,5.1c0,3.7,0,7.4-1.3,11
			c-0.6,1.7-1.2,2.1-2.5,0.7c-1.3-1.4-2.6-2.7-4.4-3.3C54.9,68.8,52,70.2,49.9,69.7z"/>
		<path class="st0" d="M87.1,74.9c-0.2-0.7-0.3-1.4-0.5-2.1c0.7-2.2,2.3-3.1,4.5-3c1.7,0,2.7,1.1,3,2.7c0.3,1.7-0.4,2.6-2.2,2.5
			c0-0.5,0-1,0-1.5c-0.1-1-0.3-1.9-1.5-0.8C88.9,73,87.7,73.5,87.1,74.9z"/>
		<path class="st0" d="M10.9,75.9c-0.1,0.5-0.1,0.9-0.2,1.4c-0.7,0-1.5,0-2.2,0c-1.4,0-3-0.1-3.4-1.6c-0.4-1.5,1.3-1.9,2.3-2.5
			c1.7-1,2.4,0.5,3,1.7C10.6,75.2,10.7,75.5,10.9,75.9z"/>
		<path class="st0" d="M91.9,73.6c0,0.5,0,1,0,1.5s0,1,0,1.5c-1,0-2,0-3,0c-0.3-0.6-0.8-0.7-1.4-0.8c-0.1-0.3-0.3-0.6-0.4-0.9
			c0.6-1.5,1.9-1.9,3.3-2.1C90.7,73.4,91.2,73.5,91.9,73.6z"/>
		<path class="st0" d="M61.1,3.8c0.7,0.3,1.2,0.8,1.5,1.5c-0.5,0.7-1.2,1-1.8,0.3C60.1,5,60.5,4.3,61.1,3.8z"/>
		<path class="st0" d="M87.5,75.8c0.6,0,1.1,0.2,1.4,0.8c-0.3,0.5-0.5,1.1-0.8,1.6C87,77.6,87.4,76.6,87.5,75.8z"/>
		<path class="st0" d="M93,77c-0.1,0.3-0.2,0.5-0.3,0.7c-0.3-0.2-0.5-0.3-0.8-0.5c0.1-0.2-0.6-0.7,0.2-0.6
			C92.5,76.6,92.8,76.9,93,77z"/>
		<path class="st3" d="M64.8,41.3c0.3,0.3,0.5,0.5,0.8,0.8c-0.1,0.6-0.2,1.3-1,1.2c-0.4-0.1-0.9-0.6-0.9-0.9
			C63.5,41.5,64.2,41.4,64.8,41.3z"/>
		<path class="st0" d="M91.9,73.6c-0.6,0-1.2-0.1-1.5-0.8C91.6,71.7,91.7,72.6,91.9,73.6z"/>
	</g>
</g>
</svg>
