<?xml version="1.0" encoding="utf-8"?>
<!-- Generator: Adobe Illustrator 22.0.1, SVG Export Plug-In . SVG Version: 6.00 Build 0)  -->
<svg version="1.1" id="Слой_1" xmlns="http://www.w3.org/2000/svg" xmlns:xlink="http://www.w3.org/1999/xlink" x="0px" y="0px"
	 viewBox="0 0 512 512" style="enable-background:new 0 0 512 512;" xml:space="preserve">
<style type="text/css">
	.st0{fill:#1C62FB;}
	.st1{fill:#BCD8EB;}
	.st2{fill:#007EFF;}
	.st3{fill:#FFF3F3;}
	.st4{fill:#E9DFDA;}
</style>
<path class="st0" d="M317,0H75v512h362V120l-85-30L317,0z"/>
<path class="st0" d="M317,0h-61v512h181V120l-85-30L317,0z"/>
<path class="st1" d="M317,120h120L317,0V120z"/>
<path class="st2" d="M40,195h432v226H40V195z"/>
<path class="st2" d="M256,195h216v226H256V195z"/>
<path class="st3" d="M142.5,242H98v136h30v-45h14.5c25.1,0,45.5-20.4,45.5-45.5S167.6,242,142.5,242z M142.5,303H128v-31h14.5
	c8.5,0,15.5,7,15.5,15.5S151,303,142.5,303z"/>
<path class="st3" d="M248,242h-30v136h30c33.1,0,60-26.9,60-60v-16C308,268.9,281.1,242,248,242z M278,318c0,16.5-13.5,30-30,30v-76
	c16.5,0,30,13.5,30,30V318z"/>
<g>
	<path class="st4" d="M256,242.6v30.5c12.7,3.5,22,15.1,22,28.9v16c0,13.8-9.3,25.4-22,28.9v30.5c29.3-3.9,52-29.1,52-59.5v-16
		C308,271.6,285.3,246.5,256,242.6z"/>
	<path class="st4" d="M415,272v-30h-75v136h30v-41.5h30v-30h-30V272H415z"/>
</g>
</svg>
