<?xml version="1.0" encoding="utf-8"?>
<!-- Generator: Adobe Illustrator 22.0.1, SVG Export Plug-In . SVG Version: 6.00 Build 0)  -->
<svg version="1.1" id="Layer_1" xmlns="http://www.w3.org/2000/svg" xmlns:xlink="http://www.w3.org/1999/xlink" x="0px" y="0px"
	 viewBox="0 0 511.9 511.9" style="enable-background:new 0 0 511.9 511.9;" xml:space="preserve">
<style type="text/css">
	.st0{fill:#1EF3FE;}
	.st1{fill:#3B5757;}
	.st2{fill:#00C0EF;}
	.st3{fill:#BADCFE;}
	.st4{fill:#1B62FB;}
	.st5{fill:#417DFE;}
	.st6{fill:#5C546A;}
</style>
<g>
	<g>
		<path class="st0" d="M436.5,358l-75-14c-0.5-0.1-1-0.1-1.5-0.1h-208c-0.5,0-1,0-1.5,0.1l-75.7,14.2C36.1,369,15.9,407,15.9,439
			v43.8c0,16,14.4,29,32,29h416c17.6,0,32-13,32-29V439C495.9,407,475.7,369,436.5,358z"/>
	</g>
	<g>
		<path class="st1" d="M294.7,511.9l-14.9-89.3c-0.6-3.9-4-6.7-7.9-6.7h-32c-3.9,0-7.3,2.8-7.9,6.7l-14.9,89.3L294.7,511.9
			L294.7,511.9z"/>
	</g>
	<g>
		<path class="st1" d="M287.9,376c0-4.4-3.6-8-8-8h-40c-3,0-5.8,1.7-7.2,4.4l-8,16c-0.6,1.1-0.9,2.4-0.8,3.6l0.1,15.8
			c0,13.2,10.8,24,24,24h16c13.2,0,24-10.8,24-24L287.9,376z"/>
	</g>
	<g>
		<path class="st2" d="M259.8,345.1l-71.9-40.2c-3.5-2-7.9-1-10.3,2.2l-30.2,40c-2.1,2.7-2.2,6.5-0.2,9.3l48.8,72
			c2.7,4,7,6.5,11.7,6.9c0.5,0,1,0.1,1.5,0.1c4.2,0,8.3-1.7,11.3-4.7c0.2-0.2,0.4-0.4,0.6-0.6l33.1-41.2c0.4-0.4,0.7-0.9,0.9-1.4
			l7.9-15.8c0.6-1.1,0.9-2.3,0.9-3.6v-16C263.9,349.1,262.3,346.5,259.8,345.1z"/>
	</g>
	<g>
		<path class="st2" d="M252,345.1l71.9-40.2c3.5-2,7.9-1,10.3,2.2l30.2,40c2.1,2.7,2.2,6.5,0.2,9.3l-48.8,72c-2.7,4-7,6.5-11.7,6.9
			c-0.5,0-1,0.1-1.5,0.1c-4.2,0-8.3-1.7-11.3-4.7c-0.2-0.2-0.4-0.4-0.6-0.6l-33.1-41.2c-0.4-0.4-0.7-0.9-0.9-1.4l-7.9-15.8
			c-0.6-1.1-0.9-2.3-0.9-3.6v-16C247.9,349.1,249.5,346.5,252,345.1z"/>
	</g>
	<g>
		<path class="st3" d="M367.9,152l-15.8-16c0,0-54.2-14.7-168.2,0l-48,16c0,11,0,17.6,0,56c0,79.5,53.7,144,120,144
			s120-64.5,120-144c0-12.9,0-37.5,0-56C373.8,154.3,367.9,152,367.9,152z"/>
	</g>
	<g>
		<path class="st4" d="M441.9,60.3L279.2,4.5c-17.6-6-37-6-54.7,0L61.8,60.3c-8.5,2.9-14,10.6-14,19.6s5.5,16.7,14,19.6l79.6,27.3
			c0.8,0.3,1.7,0.4,2.6,0.4c0,0,0.1,0,0.1,0l224-2.8c0.8,0,1.7-0.2,2.5-0.4l71.4-24.5c8.5-2.9,14-10.6,14-19.6
			S450.4,63.2,441.9,60.3z"/>
	</g>
	<g>
		<g>
			<path class="st5" d="M228.5,141.2c8.5-0.6,17.6-1,27.4-1c9.9,0,19,0.4,27.4,1c32.6,1.9,71.3,7.3,92.6,18.8V96
				c0-27.5-62.2-40-120-40s-120,12.5-120,40v64C157.2,148.5,195.9,143.1,228.5,141.2z"/>
		</g>
		<g>
			<path class="st6" d="M255.9,100.4c-34.7,0-92.2,4.6-120,19.7v20.3c0-7,42.1-24,120-24s120,17,120,24V120
				C348.2,104.9,290.7,100.4,255.9,100.4z"/>
		</g>
		<g>
			<path class="st5" d="M255.9,56C255.9,56,255.9,56,255.9,56l-0.1,84.2c0,0,0,0,0.1,0c9.9,0,19,0.4,27.4,1
				c32.6,1.9,71.3,7.3,92.6,18.8V96C375.9,68.6,313.7,56,255.9,56z"/>
		</g>
		<g>
			<path class="st6" d="M255.9,100.4v16c0,0,0,0,0.1,0c77.9,0,120,17,120,24V120C348.2,104.9,290.7,100.4,255.9,100.4
				C255.9,100.4,255.9,100.4,255.9,100.4z"/>
		</g>
	</g>
	<g>
		<path class="st2" d="M95.9,458.4c0-17-6.7-33.3-18.7-45.3l-35.5-35.5C24.7,394.4,15.9,418,15.9,439v43.8c0,16,14.4,29,32,29h48
			L95.9,458.4L95.9,458.4L95.9,458.4z"/>
	</g>
	<g>
		<path class="st2" d="M470.1,377.7l-35.5,35.5c-12,12-18.7,28.3-18.7,45.3v53.5h48c17.6,0,32-13,32-29V439
			C495.9,418,487.2,394.5,470.1,377.7z"/>
	</g>
</g>
</svg>
