<?xml version="1.0" encoding="utf-8"?>
<!-- Generator: Adobe Illustrator 22.0.1, SVG Export Plug-In . SVG Version: 6.00 Build 0)  -->
<svg version="1.1" id="Слой_1" xmlns="http://www.w3.org/2000/svg" xmlns:xlink="http://www.w3.org/1999/xlink" x="0px" y="0px"
	 viewBox="0 0 97.3 98.5" style="enable-background:new 0 0 97.3 98.5;" xml:space="preserve">
<style type="text/css">
	.st0{fill:#FEFEFE;}
	.st1{fill:#324A5E;}
	.st2{fill:#DFF3FE;}
	.st3{fill:#283D4C;}
	.st4{fill:#1B62FB;}
	.st5{fill:#417DFE;}
	.st6{fill:#BADCFE;}
</style>
<g>
	<g>
		<path class="st0" d="M14.2,98.5c-3.7,0-7.5-0.1-11.2,0c-1.8,0.1-2.3-0.4-2.3-2.3c0.1-16.6,0.1-33.2,0.1-49.8c0-14,0-28,0-42
			c0-1.9-0.1-2.9,2.5-2.8c30.3,0.1,60.7,0.1,91,0c2,0,2.6,0.2,2.6,2.4c-0.1,30.7-0.1,61.4,0,92.1c0,1.9-0.5,2.4-2.3,2.3
			c-3.7-0.2-7.5,0-11.2,0c0-4.2-0.2-8.5,0-12.7c0.7-12.2-9.8-19.5-21-20.2c-6.1-2.6-6.1-2.6-6.1-9.1c0.9,1.1,2-0.2,2.9,0.1
			c2.3,1.2,4.8,1.5,7.1,2.4c2.5,1,3.9,0.1,5.1-1.6c1.5-2.1,2.9-4.2,3.7-6.7c4.3-13.6,3.4-26.4-5.4-38C62.1,3,47.1-1.5,35.7,6.2
			C28.5,11,23.5,17.6,21.3,26.4c-2.7,10.8-1.4,20.9,4.3,30.4c1,1.6,2.3,3.4,4.8,2.5c2.6-0.9,5.2-1.8,7.8-2.7c1,0,2-0.1,2.9-0.1
			c0,2.2,0.5,4.7-0.3,6.6c-0.7,1.8-3.6,0.9-5.2,2c-0.2,0.1-0.3,0.4-0.5,0.5c-3.5-0.5-6.5,1.1-9.5,2.3c-6.5,2.7-12,8.8-11.5,16.8
			C14.4,89.3,14.2,93.9,14.2,98.5z"/>
		<path class="st1" d="M62.3,65.6c11.2,0.7,21.6,8,21,20.2c-0.2,4.2,0,8.5,0,12.7c-3.8,0-7.5,0-11.3,0c0-4.1,0-8.2,0-12.3
			c0-1-0.1-2.2-1.3-2.3c-1.6-0.1-1.7,1.2-1.7,2.3c0,4.1,0,8.2,0,12.3c-5.3,0-10.5,0-15.8,0c0-0.8,0.2-1.6,0.4-2.5
			c2.2-7.6,4.3-15.3,6.4-23C61.8,70.9,62.2,68.3,62.3,65.6z"/>
		<path class="st1" d="M44.2,98.5c-5.3,0-10.5,0-15.8,0c0-4,0-8,0-12c0-1.3,0-2.7-1.7-2.8c-1.9-0.1-2,1.4-2,2.8c0,4,0,8,0,12
			c-2.3,0-4.5,0-6.8,0c0-3.7,0-7.5,0-11.2C18,76.6,24.3,69,35.1,67c0.4,2.2,0.8,4.3,2.3,6c0.1,0.8,0.3,1.6,0.5,2.5
			C40.1,83.2,42.1,90.8,44.2,98.5z"/>
		<path class="st2" d="M44.2,98.5c-2.1-7.7-4.1-15.4-6.3-23c-0.2-0.8-0.4-1.6-0.5-2.5c3.1-0.7,5.6,1.7,8.8,1.7c4.7,0,9.3-1,13.8-1.7
			c-2.1,7.7-4.2,15.4-6.4,23c-0.2,0.8-0.4,1.6-0.4,2.5C50.2,98.5,47.2,98.5,44.2,98.5z"/>
		<path class="st3" d="M35.1,67C24.3,69,18,76.6,18,87.3c0,3.7,0,7.5,0,11.2c-1.3,0-2.5,0-3.8,0c0-4.6,0.2-9.3,0-13.9
			c-0.5-8,5.1-14.1,11.5-16.8c3-1.2,6-2.8,9.5-2.3C35.1,66.1,35.1,66.5,35.1,67z"/>
		<path class="st3" d="M24.7,98.5c0-4,0-8,0-12c0-1.4,0.1-3,2-2.8c1.6,0.1,1.7,1.6,1.7,2.8c0,4,0,8,0,12
			C27.2,98.5,26,98.5,24.7,98.5z"/>
		<path class="st3" d="M69,98.5c0-4.1,0-8.2,0-12.3c0-1.1,0.1-2.5,1.7-2.3c1.2,0.1,1.3,1.3,1.3,2.3c0,4.1,0,8.2,0,12.3
			C71,98.5,70,98.5,69,98.5z"/>
		<path class="st4" d="M38.3,56.6c-2.6,0.9-5.2,1.8-7.8,2.7c-2.5,0.9-3.8-0.8-4.8-2.5c-5.7-9.5-7-19.6-4.3-30.4
			c2.2-8.8,7.2-15.4,14.4-20.3C47.1-1.5,62.1,3,69.6,12.8c8.9,11.6,9.8,24.4,5.4,38c-0.8,2.5-2.2,4.6-3.7,6.7
			c-1.2,1.7-2.6,2.6-5.1,1.6c-2.3-0.9-4.9-1.3-7.1-2.4c2.6-3.1,5.7-6,6.8-10.1c0.3-1.3,1.5-1.2,2.3-1.6c3.3-1.7,4.6-4.5,4.4-8
			c-0.2-3.2-2.5-4.8-5.3-5.9c-5.6-2.2-11.6-3.6-16.1-8.2c-1.3-1.4-3.4-1.3-4.8-0.2c-5.1,4.2-11.3,6.3-17.1,9
			c-2.9,1.4-3.9,3.4-3.9,6.5c0,3.1,0.8,5.3,3.9,6.5c1,0.4,2.6,0.3,2.9,1.9C32.9,50.7,35.7,53.6,38.3,56.6z"/>
		<path class="st5" d="M38.3,56.6c-2.5-3-5.3-5.9-6.1-10.1c-0.3-1.6-1.9-1.5-2.9-1.9c-3-1.2-3.9-3.4-3.9-6.5c0-3.1,1-5.1,3.9-6.5
			c5.8-2.8,12-4.8,17.1-9c1.4-1.2,3.5-1.2,4.8,0.2c4.5,4.6,10.5,6,16.1,8.2c2.8,1.1,5.1,2.7,5.3,5.9c0.2,3.5-1.1,6.3-4.4,8
			c-0.8,0.4-2,0.3-2.3,1.6c-1.1,4.1-4.2,7-6.8,10.1c-1-0.3-2,1-2.9-0.1c-5,3.6-10,3.6-15,0C40.2,56.5,39.2,56.6,38.3,56.6z"/>
		<path class="st6" d="M41.2,56.5c5,3.6,10,3.6,15,0c0,6.5,0,6.5,6.1,9.1c0,2.7-0.4,5.3-2.2,7.5c-4.6,0.7-9.1,1.7-13.8,1.7
			c-3.2,0-5.7-2.4-8.8-1.7c-1.5-1.7-1.9-3.9-2.3-6c0-0.5,0.1-1,0.1-1.4c0.2-0.2,0.3-0.4,0.5-0.5c1.6-1.1,4.5-0.2,5.2-2
			C41.7,61.2,41.2,58.7,41.2,56.5z"/>
	</g>
</g>
</svg>
