<svg version="1.1" id="Слой_1" xmlns="http://www.w3.org/2000/svg" x="0" y="0" viewBox="0 0 97.3 98.5" xml:space="preserve"><style>.st3{fill:#283d4c}</style><path d="M14.2 98.5c-3.7 0-7.5-.1-11.2 0-1.8.1-2.3-.4-2.3-2.3.1-16.6.1-33.2.1-49.8v-42c0-1.9-.1-2.9 2.5-2.8 30.3.1 60.7.1 91 0 2 0 2.6.2 2.6 2.4-.1 30.7-.1 61.4 0 92.1 0 1.9-.5 2.4-2.3 2.3-3.7-.2-7.5 0-11.2 0 0-4.2-.2-8.5 0-12.7.7-12.2-9.8-19.5-21-20.2-6.1-2.6-6.1-2.6-6.1-9.1.9 1.1 2-.2 2.9.1 2.3 1.2 4.8 1.5 7.1 2.4 2.5 1 3.9.1 5.1-1.6 1.5-2.1 2.9-4.2 3.7-6.7 4.3-13.6 3.4-26.4-5.4-38-7.6-9.6-22.6-14.1-34-6.4-7.2 4.8-12.2 11.4-14.4 20.2-2.7 10.8-1.4 20.9 4.3 30.4 1 1.6 2.3 3.4 4.8 2.5l7.8-2.7c1 0 2-.1 2.9-.1 0 2.2.5 4.7-.3 6.6-.7 1.8-3.6.9-5.2 2-.2.1-.3.4-.5.5-3.5-.5-6.5 1.1-9.5 2.3-6.5 2.7-12 8.8-11.5 16.8.3 4.6.1 9.2.1 13.8z" fill="#fefefe"/><path d="M62.3 65.6c11.2.7 21.6 8 21 20.2-.2 4.2 0 8.5 0 12.7H72V86.2c0-1-.1-2.2-1.3-2.3-1.6-.1-1.7 1.2-1.7 2.3v12.3H53.2c0-.8.2-1.6.4-2.5 2.2-7.6 4.3-15.3 6.4-23 1.8-2.1 2.2-4.7 2.3-7.4zM44.2 98.5H28.4v-12c0-1.3 0-2.7-1.7-2.8-1.9-.1-2 1.4-2 2.8v12h-6.8V87.3C18 76.6 24.3 69 35.1 67c.4 2.2.8 4.3 2.3 6 .1.8.3 1.6.5 2.5 2.2 7.7 4.2 15.3 6.3 23z" fill="#324a5e"/><path d="M44.2 98.5c-2.1-7.7-4.1-15.4-6.3-23-.2-.8-.4-1.6-.5-2.5 3.1-.7 5.6 1.7 8.8 1.7 4.7 0 9.3-1 13.8-1.7-2.1 7.7-4.2 15.4-6.4 23-.2.8-.4 1.6-.4 2.5h-9z" fill="#dff3fe"/><path class="st3" d="M35.1 67C24.3 69 18 76.6 18 87.3v11.2h-3.8c0-4.6.2-9.3 0-13.9-.5-8 5.1-14.1 11.5-16.8 3-1.2 6-2.8 9.5-2.3-.1.6-.1 1-.1 1.5z"/><path class="st3" d="M24.7 98.5v-12c0-1.4.1-3 2-2.8 1.6.1 1.7 1.6 1.7 2.8v12h-3.7zm44.3 0V86.2c0-1.1.1-2.5 1.7-2.3 1.2.1 1.3 1.3 1.3 2.3v12.3h-3z"/><path d="M38.3 56.6l-7.8 2.7c-2.5.9-3.8-.8-4.8-2.5-5.7-9.5-7-19.6-4.3-30.4 2.2-8.8 7.2-15.4 14.4-20.3C47.1-1.5 62.1 3 69.6 12.8c8.9 11.6 9.8 24.4 5.4 38-.8 2.5-2.2 4.6-3.7 6.7-1.2 1.7-2.6 2.6-5.1 1.6-2.3-.9-4.9-1.3-7.1-2.4 2.6-3.1 5.7-6 6.8-10.1.3-1.3 1.5-1.2 2.3-1.6 3.3-1.7 4.6-4.5 4.4-8-.2-3.2-2.5-4.8-5.3-5.9-5.6-2.2-11.6-3.6-16.1-8.2-1.3-1.4-3.4-1.3-4.8-.2-5.1 4.2-11.3 6.3-17.1 9-2.9 1.4-3.9 3.4-3.9 6.5s.8 5.3 3.9 6.5c1 .4 2.6.3 2.9 1.9.7 4.1 3.5 7 6.1 10z" fill="#1b62fb"/><path d="M38.3 56.6c-2.5-3-5.3-5.9-6.1-10.1-.3-1.6-1.9-1.5-2.9-1.9-3-1.2-3.9-3.4-3.9-6.5s1-5.1 3.9-6.5c5.8-2.8 12-4.8 17.1-9 1.4-1.2 3.5-1.2 4.8.2 4.5 4.6 10.5 6 16.1 8.2 2.8 1.1 5.1 2.7 5.3 5.9.2 3.5-1.1 6.3-4.4 8-.8.4-2 .3-2.3 1.6-1.1 4.1-4.2 7-6.8 10.1-1-.3-2 1-2.9-.1-5 3.6-10 3.6-15 0-1 0-2 .1-2.9.1z" fill="#417dfe"/><path d="M41.2 56.5c5 3.6 10 3.6 15 0 0 6.5 0 6.5 6.1 9.1 0 2.7-.4 5.3-2.2 7.5-4.6.7-9.1 1.7-13.8 1.7-3.2 0-5.7-2.4-8.8-1.7-1.5-1.7-1.9-3.9-2.3-6 0-.5.1-1 .1-1.4.2-.2.3-.4.5-.5 1.6-1.1 4.5-.2 5.2-2 .7-2 .2-4.5.2-6.7z" fill="#badcfe"/></svg>