<svg version="1.1" id="Capa_1" xmlns="http://www.w3.org/2000/svg" x="0" y="0" viewBox="0 0 98.5 77" xml:space="preserve"><style>.st0{fill:#3b5757}</style><path class="st0" d="M95.9 74.3l-5.6-15.4-2.6.8-2.7-.8-5.6 15.4 5.3 1.7 3-8.1 2.9 8.1zm-11-54h5.6v29.2h-5.6z"/><path class="st0" d="M90.4 47.3c-.9-.3-1.8-.5-2.8-.5s-1.9.2-2.8.5c-3.2 1-5.6 3.9-5.6 7.3 0 4.3 3.7 7.7 8.3 7.7s8.3-3.5 8.3-7.7c.2-3.3-2.1-6.2-5.4-7.3z"/><path d="M23.5 22.6v16.6c0 7.3 10.7 12.9 25 12.9s25-5.5 25-12.9V22.6h-50z" fill="#1c62fb"/><path d="M73.5 22.6v16.6c0 7.3-10.7 12.9-25 12.9V22.6h25z" fill="#417dfe"/><path d="M48.5 1L1 18.6l47.5 17.6 36.4-13.4 5.6-2.1 5.6-2.1L48.5 1z" fill="#76e1f7"/><path fill="#17c5ec" d="M96 18.6l-5.6 2.1-5.5 2.1-36.4 13.4V1z"/></svg>