<svg version="1.1" id="Capa_1" xmlns="http://www.w3.org/2000/svg" x="0" y="0" viewBox="0 0 97.2 75.5" xml:space="preserve"><style>.st1{fill:#17c5ec}.st2{fill:#76e1f7}</style><path d="M2.8 63.9h11.7v10.2c0 .5.2.9.5 1.2.3.3.7.5 1.2.5h8.7c.4 0 .8-.2 1.2-.5.4-.3.5-.7.5-1.2V63.9h26.3c.5 0 .9-.2 1.2-.5.3-.3.5-.7.5-1.2v-6.8c0-.5-.2-.9-.5-1.2-.3-.3-.7-.5-1.2-.5H26.5v-6.3h17.7c7 0 12.6-2.1 17-6.5s6.6-9.9 6.6-16.7-2.2-12.4-6.6-16.7c-4.4-4.4-10-6.6-17-6.6H16.1c-.5 0-.9.2-1.2.5s-.5.7-.5 1.2V36H2.8c-.5 0-.9.2-1.2.5-.3.3-.5.7-.5 1.2v7.9c0 .5.2.9.5 1.2.3.3.7.5 1.2.5h11.7v6.3H2.8c-.5 0-.9.2-1.2.5s-.5.7-.5 1.2V62c0 .5.2.9.5 1.2.3.5.7.7 1.2.7zm23.7-51.6h16.7c3.7 0 6.6 1.1 8.9 3.3s3.4 5.1 3.4 8.6-1.1 6.4-3.4 8.6c-2.3 2.2-5.2 3.3-8.9 3.3H26.5V12.3z" fill="#417dfe"/><path class="st1" d="M96.1 13.5c0 6.9-5.5 12.6-12.3 12.6s-12.3-5.6-12.3-12.6C71.5 6.6 77 .9 83.8.9c6.8 0 12.3 5.6 12.3 12.6z"/><path class="st2" d="M81.8 19.1c-.5 0-.8-.4-.8-.9V8.6c0-.5.4-.9.8-.9H86c1.8 0 3.4 1.5 3.4 3.4s-1.5 3.4-3.4 3.4h-3.4v3.7c.1.5-.3.9-.8.9zm.9-6.3H86c.9 0 1.7-.8 1.7-1.7S87 9.4 86 9.4h-3.4l.1 3.4z"/><path class="st2" d="M85.2 17.4h-6.1c-.5 0-.8-.4-.8-.9s.4-.9.8-.9h6.1c.5 0 .8.4.8.9s-.3.9-.8.9z"/><path class="st1" d="M96.1 38.3c0 6.9-5.5 12.6-12.3 12.6s-12.3-5.6-12.3-12.6S77 25.8 83.8 25.8c6.8 0 12.3 5.6 12.3 12.5z"/><path class="st2" d="M81.8 44c-.5 0-.8-.4-.8-.9v-9.7c0-.5.4-.9.8-.9H86c1.8 0 3.4 1.5 3.4 3.4s-1.5 3.4-3.4 3.4h-3.4V43c.1.6-.3 1-.8 1zm.9-6.2H86c.9 0 1.7-.8 1.7-1.7s-.7-1.8-1.7-1.8h-3.4l.1 3.5z"/><path class="st2" d="M85.2 42.3h-6.1c-.5 0-.8-.4-.8-.9s.4-.9.8-.9h6.1c.5 0 .8.4.8.9s-.3.9-.8.9z"/><path class="st1" d="M96.1 63.3c0 6.9-5.5 12.6-12.3 12.6s-12.3-5.6-12.3-12.6S77 50.8 83.8 50.8c6.8.1 12.3 5.7 12.3 12.5z"/><path class="st2" d="M81.8 69c-.5 0-.8-.4-.8-.9v-9.6c0-.5.4-.9.8-.9H86c1.8 0 3.4 1.5 3.4 3.4s-1.5 3.4-3.4 3.4h-3.4v3.7c.1.5-.3.9-.8.9zm.9-6.2H86c.9 0 1.7-.8 1.7-1.7s-.7-1.7-1.7-1.7h-3.4l.1 3.4z"/><path class="st2" d="M85.2 67.4h-6.1c-.5 0-.8-.4-.8-.9s.4-.9.8-.9h6.1c.5 0 .8.4.8.9s-.3.9-.8.9z"/></svg>