<svg version="1.1" id="Слой_1" xmlns="http://www.w3.org/2000/svg" x="0" y="0" viewBox="0 0 93.3 82.7" xml:space="preserve"><style>.st0{fill:#385656}.st2{fill:#3f7eff}.st3{fill:#1462fc}.st5{fill:#ede9e8}.st6{fill:#dfd7d5}</style><path class="st0" d="M67.9 71.8H44V10.9h23.9v4.7H49.3v51.6h18.6v4.6z"/><path class="st0" d="M33.3 39L28 41.3l5.3 2.3h34.6V39H33.3z"/><path d="M65.3 57.7v23.6h26.4V57.7H65.3zm0-28.1V53h26.4V29.6H65.3zm0-28.3v23.6h26.4V1.3H65.3z" fill="#18dbf8"/><path class="st2" d="M17.5 24.9C8.8 24.9 1.7 31.3 1.7 39v4.7h31.6V39c0-7.7-7.1-14.1-15.8-14.1z"/><path class="st3" d="M33.3 39v4.7H17.5V24.9c8.7 0 15.8 6.4 15.8 14.1z"/><path class="st2" d="M17.5 6.2C11.7 6.2 7 10.4 7 15.6S11.7 25 17.5 25 28 20.7 28 15.6s-4.7-9.4-10.5-9.4z"/><path class="st3" d="M17.5 24.9V6.2c5.8 0 10.5 4.2 10.5 9.4s-4.7 9.3-10.5 9.3z"/><path d="M78.5 1.3h13.2v23.6H78.5V1.3zm0 28.3h13.2V53H78.5V29.6zm0 28.1h13.2v23.6H78.5V57.7z" fill="#00c2f0"/><path class="st5" d="M88.2 64.1l-9.8 8.7-2.6 2.3-7.1-6.4 3.7-3.3 3.4 3 2.6-2.3 6.1-5.3 3.7 3.3z"/><path class="st6" d="M84.5 60.8l3.7 3.3-9.8 8.7v-6.7l6.1-5.3z"/><path class="st5" d="M88.2 35.9l-9.8 8.7-2.6 2.4-7.1-6.4 3.7-3.3 3.4 3 2.6-2.3 6.1-5.3 3.7 3.2z"/><path class="st6" d="M84.5 32.7l3.7 3.3-9.8 8.7V38l6.1-5.3z"/><path class="st5" d="M88.2 7.8l-9.8 8.7-2.6 2.3-7.1-6.4 3.7-3.3 3.4 3 2.6-2.3 6.1-5.3 3.7 3.3z"/><path class="st6" d="M88.2 7.8l-9.8 8.7V9.9l6.1-5.3 3.7 3.2z"/></svg>