<svg version="1.1" id="Layer_1" xmlns="http://www.w3.org/2000/svg" x="0" y="0" viewBox="0 0 512 321.2" xml:space="preserve"><style>.st1{fill:#417dfe}.st2{fill:#1b62fb}.st3{fill:#ededee}.st4{fill:#504b5a}.st5{fill:#dcdbde}.st6{fill:#625d6b}.st7{fill:#77e1f7}</style><path d="M8.8 226.1V276h370.8L512 214.3l-6-23.8c-1.7-7-7.5-12.2-14.6-13.2l-50-7.1-46.9-40.2c-9.6-8.2-21.8-12.8-34.5-12.8H241c-12.9 0-25.1 5.6-33.5 15.4L167.7 179c-75.3 0-128.9 13.1-145.5 23.3-8.3 5.1-13.4 14.1-13.4 23.8z" fill="#16c5ec"/><path class="st1" d="M8.8 231.9v53h335.4L512 258.4v-53c0-4.9-4-8.8-8.8-8.8H158.9c-123.6 0-150.1 17.7-150.1 35.3z"/><path class="st2" d="M0 276c0 4.9 3.9 8.8 8.8 8.8h414.9c.6 0 1.3-.1 1.9-.2l79.4-17.7c4.8-1.1 7.8-5.8 6.7-10.5-1.1-4.8-5.8-7.7-10.5-6.7l-78.5 17.4H8.8c-4.9.1-8.8 4.1-8.8 8.9z"/><circle class="st3" cx="88.3" cy="267.2" r="44.1"/><path class="st4" d="M35.3 267.2c0-29.2 23.8-53 53-53s53 23.8 53 53-23.8 53-53 53-53-23.8-53-53zm17.7 0c0 19.5 15.8 35.3 35.3 35.3s35.3-15.8 35.3-35.3-15.8-35.3-35.3-35.3c-19.5 0-35.3 15.8-35.3 35.3z"/><circle class="st5" cx="88.3" cy="267.2" r="17.7"/><circle class="st3" cx="423.7" cy="267.2" r="44.1"/><path class="st4" d="M370.8 267.2c0-29.2 23.8-53 53-53s53 23.8 53 53-23.8 53-53 53c-29.3 0-53-23.8-53-53zm17.6 0c0 19.5 15.8 35.3 35.3 35.3 19.5 0 35.3-15.8 35.3-35.3s-15.8-35.3-35.3-35.3c-19.5 0-35.3 15.8-35.3 35.3z"/><circle class="st5" cx="423.7" cy="267.2" r="17.7"/><path class="st2" d="M150.1 240.7c0-4.9 4-8.8 8.8-8.8h185.4c4.9 0 8.8 4 8.8 8.8 0 4.9-4 8.8-8.8 8.8H158.9c-4.9.1-8.8-3.9-8.8-8.8zM0 240.7c0-4.9 4-8.8 8.8-8.8h8.8c4.9 0 8.8 4 8.8 8.8 0 4.9-4 8.8-8.8 8.8H8.8c-4.8.1-8.8-3.9-8.8-8.8z"/><path class="st1" d="M399.9 177c-7.7 1.3-15.4 1.9-23.2 1.9h-209l39.8-46.4c8.4-9.8 20.6-15.4 33.5-15.4h119c12.6 0 24.9 4.5 34.5 12.8l46.9 40.2-41.5 6.9z"/><path class="st6" d="M217.9 171.7c-2.4 2.9-.4 7.2 3.4 7.2h154.6c6.9 0 12.5-5.6 12.5-12.5 0-3.3-1.3-6.5-3.7-8.8l-26.5-26.5c-3.3-3.3-7.8-5.2-12.5-5.2h-81.5c-5.2 0-10.2 2.3-13.6 6.4l-32.7 39.4z"/><path class="st6" d="M317.8 126h17.6l17.7 52.9h-26.5z"/><path class="st7" d="M9.2 223.1h17.3c4.9 0 8.8-4 8.8-8.8s-4-8.8-8.8-8.8h-8.2c-5.1 4.5-8.3 10.7-9.1 17.6z"/><path class="st6" d="M167.7 178.9h18.2c5.2 0 10.2-2.3 13.6-6.4l32.8-39.4c2.4-2.9.4-7.2-3.4-7.2h-14.4c-2.6 1.9-4.9 4.1-7 6.6l-39.8 46.4z"/><path class="st7" d="M503.2 196.6h-8.8c-4.9 0-8.8 4-8.8 8.8s4 8.8 8.8 8.8H512v-8.8c0-4.8-4-8.8-8.8-8.8z"/><path d="M167.7 80.7h-43.4V53.1c0-7.9-.6-13-1.2-15.2-.6-2.3-3.1-2.8-6.2-2.8-3.7 0-5.6 1.1-6.8 3.4-1.2 2.3-1.2 7.9-1.2 15.8V128c0 7.9.6 13 1.2 15.2.6 2.3 3.1 3.4 6.2 3.4s5.6-1.1 6.2-3.4c1.2-2.3 1.2-7.9 1.2-16.9v-19.7h43.4v6.2c0 16.3-1.2 28.2-3.7 34.9-2.5 6.8-8.1 13-16.1 18-8.1 5.1-18.6 7.9-31 7.9-13 0-23-2.3-31.6-6.8-8.1-4.5-13.7-10.7-16.1-18-2.5-7.9-3.7-19.1-3.7-34.9V67.7c0-11.3.6-20.3 1.2-25.9.6-5.6 3.1-11.3 7.4-16.3s9.9-9.6 16.8-12.4c7.4-2.8 15.5-4.5 24.8-4.5 13 0 23.6 2.3 31.6 7.3 8.1 4.5 13.7 10.7 16.1 17.5s3.7 18 3.7 32.7v14.6h1.2z" fill="#1b62fc"/></svg>