<?xml version="1.0" encoding="utf-8"?>
<!-- Generator: Adobe Illustrator 22.0.1, SVG Export Plug-In . SVG Version: 6.00 Build 0)  -->
<svg version="1.1" id="Слой_1" xmlns="http://www.w3.org/2000/svg" xmlns:xlink="http://www.w3.org/1999/xlink" x="0px" y="0px"
	 viewBox="0 0 98.1 97.3" style="enable-background:new 0 0 98.1 97.3;" xml:space="preserve">
<style type="text/css">
	.st0{fill:#1562FC;}
	.st1{fill:#3F7EFF;}
	.st2{fill:#02DAEF;}
</style>
<g>
	<path class="st0" d="M24,3.1v91.5H10.8V45.5c0-7.1-0.1-11.4-0.3-12.8c-0.2-1.4-0.8-2.4-1.6-3.2c-0.9-0.8-2.8-1-6-1H1.6V17.7
		C8,15.3,12.9,10.4,16.2,3.1C16.2,3.1,24,3.1,24,3.1z"/>
	<path class="st1" d="M54.5,42.7c1.9,1.4,3.5,3.5,4.5,6.1c1.1,2.6,1.6,9.1,1.6,19.3c0,7.3-0.4,12.8-1.3,16.4
		c-0.9,3.7-2.5,6.3-4.9,8.5c-2.4,2.2-5.6,3.5-9.6,3.5c-3.9,0-7-1-9.3-3.2s-3.9-5.1-5-8.5c-1-3.5-1.5-9.5-1.5-17.7
		c0-5.5,0.2-10.4,0.8-14.4s2.1-7.3,4.7-9.7c-1.6-1.4-2.9-3.5-3.7-6.5c-0.9-3-1.2-6.7-1.2-11.4c0-7.9,1.3-13.8,3.8-17.7
		s6.4-5.9,11.4-5.9c5.8,0,9.8,2,12.1,6.3c2.3,4.3,3.4,10.1,3.4,17.9c0,4.9-0.3,8.5-1.1,10.8C58.3,38.4,56.8,40.4,54.5,42.7z
		 M47.4,61.1c0-3.5-0.2-5.9-0.6-6.9c-0.4-1.2-1.1-1.8-1.9-1.8c-0.9,0-1.5,0.6-1.8,1.6c-0.4,1-0.5,3.5-0.5,7.1v12
		c0,4.1,0.2,6.5,0.6,7.7c0.4,1.2,1.1,1.6,2.1,1.6c1,0,1.6-0.6,1.9-1.8c0.3-1.2,0.5-3.7,0.5-7.7V61.1H47.4z M47.1,23
		c0-3-0.1-5.1-0.4-6.1c-0.3-1-1-1.4-1.8-1.4c-0.9,0-1.5,0.6-1.7,1.6c-0.3,1-0.4,3-0.4,6.1v6.9c0,2.8,0.2,4.7,0.5,5.7s1,1.6,1.7,1.6
		c0.9,0,1.5-0.6,1.7-1.6c0.3-1,0.4-3.2,0.4-6.5C47.1,29.3,47.1,23,47.1,23z"/>
	<path class="st2" d="M64.9,42.1h11.8V21.8h8v20.3h11.9v13.8H84.7v20.3h-8V55.9H64.9V42.1z"/>
</g>
</svg>
