<svg xmlns="http://www.w3.org/2000/svg" viewBox="0 0 98.1 97.3"><path d="M24 3.1v91.5H10.8V45.5c0-7.1-.1-11.4-.3-12.8-.2-1.4-.8-2.4-1.6-3.2-.9-.8-2.8-1-6-1H1.6V17.7C8 15.3 12.9 10.4 16.2 3.1H24z" fill="#1562fc"/><path d="M54.5 42.7c1.9 1.4 3.5 3.5 4.5 6.1 1.1 2.6 1.6 9.1 1.6 19.3 0 7.3-.4 12.8-1.3 16.4-.9 3.7-2.5 6.3-4.9 8.5-2.4 2.2-5.6 3.5-9.6 3.5-3.9 0-7-1-9.3-3.2s-3.9-5.1-5-8.5c-1-3.5-1.5-9.5-1.5-17.7 0-5.5.2-10.4.8-14.4s2.1-7.3 4.7-9.7c-1.6-1.4-2.9-3.5-3.7-6.5-.9-3-1.2-6.7-1.2-11.4 0-7.9 1.3-13.8 3.8-17.7s6.4-5.9 11.4-5.9c5.8 0 9.8 2 12.1 6.3 2.3 4.3 3.4 10.1 3.4 17.9 0 4.9-.3 8.5-1.1 10.8-.9 1.9-2.4 3.9-4.7 6.2zm-7.1 18.4c0-3.5-.2-5.9-.6-6.9-.4-1.2-1.1-1.8-1.9-1.8-.9 0-1.5.6-1.8 1.6-.4 1-.5 3.5-.5 7.1v12c0 4.1.2 6.5.6 7.7.4 1.2 1.1 1.6 2.1 1.6s1.6-.6 1.9-1.8c.3-1.2.5-3.7.5-7.7V61.1h-.3zM47.1 23c0-3-.1-5.1-.4-6.1-.3-1-1-1.4-1.8-1.4-.9 0-1.5.6-1.7 1.6-.3 1-.4 3-.4 6.1v6.9c0 2.8.2 4.7.5 5.7s1 1.6 1.7 1.6c.9 0 1.5-.6 1.7-1.6.3-1 .4-3.2.4-6.5V23z" fill="#3f7eff"/><path d="M64.9 42.1h11.8V21.8h8v20.3h11.9v13.8H84.7v20.3h-8V55.9H64.9V42.1z" fill="#02daef"/></svg>