<svg xmlns="http://www.w3.org/2000/svg" viewBox="0 0 90.3 49.5"><path d="M21.9 2.9V48H9.7V23.8c0-3.5-.1-5.6-.3-6.3-.2-.7-.7-1.2-1.5-1.6-.8-.4-2.6-.5-5.4-.5H1.2v-5.3C7.1 9 11.6 6.6 14.7 2.9h7.2z" fill="#1562fc"/><path d="M55.9 14.9H43.7c0-2.1 0-3.4-.1-4-.1-.5-.3-1-.7-1.4-.4-.4-1-.6-1.8-.6-.6 0-1.1.2-1.5.5-.4.4-.6.8-.7 1.4-.1.6-.1 1.7-.1 3.4v7.2c.6-1.2 1.5-2.1 2.7-2.7 1.2-.6 2.7-.9 4.5-.9 2.2 0 4.2.6 5.9 1.7 1.7 1.1 2.8 2.5 3.3 4 .5 1.6.7 3.7.7 6.3v3.6c0 3.2-.1 5.5-.4 7.1-.3 1.5-1 3-2.1 4.3s-2.7 2.3-4.7 3.1c-2 .7-4.3 1.1-6.9 1.1-3.3 0-6-.4-8.1-1.3-2.1-.8-3.7-2-4.8-3.6-1.1-1.6-1.8-3.2-2-4.9s-.3-5.2-.3-10.2v-6.2c0-5.4.1-9 .3-10.8s.9-3.5 2.1-5.1c1.2-1.6 2.9-2.8 5-3.6 2.1-.9 4.6-1.3 7.3-1.3 3.4 0 6.2.5 8.4 1.5s3.8 2.5 4.7 4.3c1 1.9 1.5 4.3 1.5 7.1zM43.7 29c0-1.6-.2-2.7-.6-3.3-.4-.6-1-.9-1.9-.9-.8 0-1.5.3-1.9.9-.4.6-.6 1.7-.6 3.3v8.2c0 2 .2 3.3.6 3.9.4.6 1 .9 1.9.9.5 0 1.1-.2 1.6-.7s.8-1.8.8-3.8V29z" fill="#3f7eff"/><path d="M59.8 22.1h10.8v-10H78v10h10.9v6.8H78v10h-7.4v-10H59.8v-6.8z" fill="#02daef"/><path fill="none" d="M-202.5-57.9h2.7v.2h-2.7z"/></svg>