<?xml version="1.0" encoding="utf-8"?>
<!-- Generator: Adobe Illustrator 22.0.1, SVG Export Plug-In . SVG Version: 6.00 Build 0)  -->
<svg version="1.1" id="Слой_1" xmlns="http://www.w3.org/2000/svg" xmlns:xlink="http://www.w3.org/1999/xlink" x="0px" y="0px"
	 viewBox="0 0 90.3 49.5" style="enable-background:new 0 0 90.3 49.5;" xml:space="preserve">
<style type="text/css">
	.st0{fill:#1562FC;}
	.st1{fill:#3F7EFF;}
	.st2{fill:#02DAEF;}
</style>
<g>
	<path class="st0" d="M21.9,2.9v45.1H9.7V23.8c0-3.5-0.1-5.6-0.3-6.3c-0.2-0.7-0.7-1.2-1.5-1.6c-0.8-0.4-2.6-0.5-5.4-0.5H1.2v-5.3
		C7.1,9,11.6,6.6,14.7,2.9H21.9z"/>
	<path class="st1" d="M55.9,14.9H43.7c0-2.1,0-3.4-0.1-4c-0.1-0.5-0.3-1-0.7-1.4c-0.4-0.4-1-0.6-1.8-0.6c-0.6,0-1.1,0.2-1.5,0.5
		c-0.4,0.4-0.6,0.8-0.7,1.4c-0.1,0.6-0.1,1.7-0.1,3.4v7.2c0.6-1.2,1.5-2.1,2.7-2.7c1.2-0.6,2.7-0.9,4.5-0.9c2.2,0,4.2,0.6,5.9,1.7
		c1.7,1.1,2.8,2.5,3.3,4c0.5,1.6,0.7,3.7,0.7,6.3v3.6c0,3.2-0.1,5.5-0.4,7.1c-0.3,1.5-1,3-2.1,4.3s-2.7,2.3-4.7,3.1
		c-2,0.7-4.3,1.1-6.9,1.1c-3.3,0-6-0.4-8.1-1.3c-2.1-0.8-3.7-2-4.8-3.6c-1.1-1.6-1.8-3.2-2-4.9S26.6,34,26.6,29v-6.2
		c0-5.4,0.1-9,0.3-10.8s0.9-3.5,2.1-5.1c1.2-1.6,2.9-2.8,5-3.6C36.1,2.4,38.6,2,41.3,2c3.4,0,6.2,0.5,8.4,1.5c2.2,1,3.8,2.5,4.7,4.3
		C55.4,9.7,55.9,12.1,55.9,14.9z M43.7,29c0-1.6-0.2-2.7-0.6-3.3c-0.4-0.6-1-0.9-1.9-0.9c-0.8,0-1.5,0.3-1.9,0.9
		c-0.4,0.6-0.6,1.7-0.6,3.3v8.2c0,2,0.2,3.3,0.6,3.9c0.4,0.6,1,0.9,1.9,0.9c0.5,0,1.1-0.2,1.6-0.7s0.8-1.8,0.8-3.8V29z"/>
	<path class="st2" d="M59.8,22.1h10.8v-10H78v10h10.9v6.8H78v10h-7.4v-10H59.8V22.1z"/>
</g>
<rect x="-202.5" y="-57.9" style="fill:none;" width="2.7" height="0.2"/>
</svg>
