<svg xmlns="http://www.w3.org/2000/svg" viewBox="0 0 90.1 70.5"><path d="M21.2 1.8V69H9V33c0-5.2-.1-8.3-.3-9.4-.2-1-.7-1.8-1.5-2.4-.8-.6-2.6-.7-5.4-.7H.5v-7.9C6.4 10.9 10.9 7.4 14 1.8h7.2z" fill="#1562fc"/><path d="M55.2 19.7H43c0-3.1 0-5.1-.1-6-.1-.7-.3-1.5-.7-2.1s-1-.9-1.8-.9c-.6 0-1.1.3-1.5.7-.4.6-.6 1.2-.7 2.1-.1.9-.1 2.5-.1 5.1v10.7c.6-1.8 1.5-3.1 2.7-4s2.7-1.3 4.5-1.3c2.2 0 4.2.9 5.9 2.5s2.8 3.7 3.3 6c.5 2.4.7 5.5.7 9.4v5.4c0 4.8-.1 8.2-.4 10.6-.3 2.2-1 4.5-2.1 6.4-1.1 1.9-2.7 3.4-4.7 4.6-2 1-4.3 1.6-6.9 1.6-3.3 0-6-.6-8.1-1.9-2.1-1.2-3.7-3-4.8-5.4-1.1-2.4-1.8-4.8-2-7.3-.2-2.5-.3-7.7-.3-15.2v-9.2c0-8 .1-13.4.3-16.1s.9-5.2 2.1-7.6 2.9-4.2 5-5.4C35.4 1.1 37.9.5 40.6.5c3.4 0 6.2.7 8.4 2.2 2.2 1.5 3.8 3.7 4.7 6.4 1 2.9 1.5 6.4 1.5 10.6zM43 40.7c0-2.4-.2-4-.6-4.9-.4-.9-1-1.3-1.9-1.3-.8 0-1.5.4-1.9 1.3-.4.9-.6 2.5-.6 4.9v12.2c0 3 .2 4.9.6 5.8.4.9 1 1.3 1.9 1.3.5 0 1.1-.3 1.6-1s.8-2.7.8-5.7V40.7h.1z" fill="#3f7eff"/><path d="M59.1 30.4h10.8V15.5h7.4v14.9h10.9v10.1H77.3v14.9h-7.4V40.6H59.1V30.4z" fill="#02daef"/><path fill="none" d="M-203.2-47.9h2.7v.2h-2.7z"/></svg>