<?xml version="1.0" encoding="utf-8"?>
<!-- Generator: Adobe Illustrator 22.0.1, SVG Export Plug-In . SVG Version: 6.00 Build 0)  -->
<svg version="1.1" id="Capa_1" xmlns="http://www.w3.org/2000/svg" xmlns:xlink="http://www.w3.org/1999/xlink" x="0px" y="0px"
	 viewBox="0 0 98.5 96.4" style="enable-background:new 0 0 98.5 96.4;" xml:space="preserve">
<style type="text/css">
	.st0{fill:#3B5757;}
	.st1{fill:#1C62FB;}
	.st2{fill:#417DFE;}
	.st3{fill:#76E1F7;}
	.st4{fill:#17C5EC;}
</style>
<g>
	<polygon class="st0" points="95.9,94.3 90.3,74.8 87.7,75.8 85,74.8 79.4,94.3 84.7,96.4 87.7,86.1 90.6,96.4 	"/>
	<rect x="84.9" y="25.8" class="st0" width="5.6" height="37"/>
</g>
<path class="st0" d="M90.4,60.1c-0.9-0.4-1.8-0.6-2.8-0.6s-1.9,0.2-2.8,0.6c-3.2,1.3-5.6,4.9-5.6,9.2c0,5.4,3.7,9.8,8.3,9.8
	s8.3-4.4,8.3-9.8C96,65.1,93.7,61.4,90.4,60.1z"/>
<path class="st1" d="M23.5,28.8v21c0,9.3,10.7,16.3,25,16.3s25-7,25-16.3v-21H23.5z"/>
<path class="st2" d="M73.5,28.8v21c0,9.3-10.7,16.3-25,16.3V28.8H73.5z"/>
<path class="st3" d="M48.5,1.4L1,23.7L48.5,46l36.4-17l5.6-2.6l5.6-2.7L48.5,1.4z"/>
<polygon class="st4" points="96,23.7 90.4,26.4 84.9,29 48.5,46 48.5,1.4 "/>
</svg>
