<svg version="1.1" id="Capa_1" xmlns="http://www.w3.org/2000/svg" x="0" y="0" viewBox="0 0 98.5 96.4" xml:space="preserve"><style>.st0{fill:#3b5757}</style><path class="st0" d="M95.9 94.3l-5.6-19.5-2.6 1-2.7-1-5.6 19.5 5.3 2.1 3-10.3 2.9 10.3zm-11-68.5h5.6v37h-5.6z"/><path class="st0" d="M90.4 60.1c-.9-.4-1.8-.6-2.8-.6s-1.9.2-2.8.6c-3.2 1.3-5.6 4.9-5.6 9.2 0 5.4 3.7 9.8 8.3 9.8s8.3-4.4 8.3-9.8c.2-4.2-2.1-7.9-5.4-9.2z"/><path d="M23.5 28.8v21c0 9.3 10.7 16.3 25 16.3s25-7 25-16.3v-21h-50z" fill="#1c62fb"/><path d="M73.5 28.8v21c0 9.3-10.7 16.3-25 16.3V28.8h25z" fill="#417dfe"/><path d="M48.5 1.4L1 23.7 48.5 46l36.4-17 5.6-2.6 5.6-2.7L48.5 1.4z" fill="#76e1f7"/><path fill="#17c5ec" d="M96 23.7l-5.6 2.7-5.5 2.6-36.4 17V1.4z"/></svg>