<?xml version="1.0" encoding="utf-8"?>
<!-- Generator: Adobe Illustrator 22.0.1, SVG Export Plug-In . SVG Version: 6.00 Build 0)  -->
<svg version="1.1" id="Capa_1" xmlns="http://www.w3.org/2000/svg" xmlns:xlink="http://www.w3.org/1999/xlink" x="0px" y="0px"
	 viewBox="0 0 97.2 97.3" style="enable-background:new 0 0 97.2 97.3;" xml:space="preserve">
<style type="text/css">
	.st0{fill:#417DFE;}
	.st1{fill:#17C5EC;}
	.st2{fill:#76E1F7;}
</style>
<g>
	<g>
		<path class="st0" d="M2.8,80.7h11.7v12.9c0,0.6,0.2,1.2,0.5,1.5c0.3,0.4,0.7,0.6,1.2,0.6h8.7c0.4,0,0.8-0.2,1.2-0.6
			s0.5-0.9,0.5-1.5V80.7h26.3c0.5,0,0.9-0.2,1.2-0.6c0.3-0.4,0.5-0.9,0.5-1.5v-8.6c0-0.6-0.2-1.2-0.5-1.5c-0.3-0.4-0.7-0.6-1.2-0.6
			H26.5v-8h17.7c7,0,12.6-2.7,17-8.2c4.4-5.5,6.6-12.5,6.6-21.2s-2.2-15.7-6.6-21.2C56.8,3.7,51.2,1,44.2,1H16.1
			c-0.5,0-0.9,0.2-1.2,0.6c-0.3,0.4-0.5,0.9-0.5,1.5v42.3H2.8c-0.5,0-0.9,0.2-1.2,0.6c-0.3,0.4-0.5,0.9-0.5,1.5v10
			c0,0.6,0.2,1.2,0.5,1.5c0.3,0.4,0.7,0.6,1.2,0.6h11.7v8H2.8c-0.5,0-0.9,0.2-1.2,0.6c-0.3,0.4-0.5,0.9-0.5,1.5v8.6
			c0,0.6,0.2,1.2,0.5,1.5C1.9,80.5,2.3,80.7,2.8,80.7z M26.5,15.3h16.7c3.7,0,6.6,1.4,8.9,4.2c2.3,2.8,3.4,6.4,3.4,10.9
			s-1.1,8.1-3.4,10.9c-2.3,2.8-5.2,4.2-8.9,4.2H26.5V15.3z"/>
	</g>
</g>
<path class="st1" d="M96.1,16.8c0,8.8-5.5,15.9-12.3,15.9c-6.8,0-12.3-7.1-12.3-15.9C71.5,8,77,0.9,83.8,0.9
	C90.6,0.9,96.1,8,96.1,16.8z"/>
<g>
	<path class="st2" d="M81.8,24c-0.5,0-0.8-0.5-0.8-1.1V10.6c0-0.6,0.4-1.1,0.8-1.1H86c1.8,0,3.4,1.9,3.4,4.3s-1.5,4.3-3.4,4.3h-3.4
		v4.7C82.7,23.5,82.3,24,81.8,24z M82.7,16H86c0.9,0,1.7-1,1.7-2.2S87,11.7,86,11.7h-3.4V16z"/>
	<path class="st2" d="M85.2,21.8h-6.1c-0.5,0-0.8-0.5-0.8-1.1s0.4-1.1,0.8-1.1h6.1c0.5,0,0.8,0.5,0.8,1.1S85.7,21.8,85.2,21.8z"/>
</g>
<path class="st1" d="M96.1,48.3c0,8.8-5.5,15.9-12.3,15.9c-6.8,0-12.3-7.1-12.3-15.9c0-8.8,5.5-15.9,12.3-15.9
	C90.6,32.4,96.1,39.5,96.1,48.3z"/>
<g>
	<path class="st2" d="M81.8,55.5c-0.5,0-0.8-0.5-0.8-1.1V42.1c0-0.6,0.4-1.1,0.8-1.1H86c1.8,0,3.4,1.9,3.4,4.3
		c0,2.4-1.5,4.3-3.4,4.3h-3.4v4.7C82.7,55,82.3,55.5,81.8,55.5z M82.7,47.6H86c0.9,0,1.7-1,1.7-2.2S87,43.2,86,43.2h-3.4V47.6z"/>
	<path class="st2" d="M85.2,53.3h-6.1c-0.5,0-0.8-0.5-0.8-1.1c0-0.6,0.4-1.1,0.8-1.1h6.1c0.5,0,0.8,0.5,0.8,1.1S85.7,53.3,85.2,53.3
		z"/>
</g>
<path class="st1" d="M96.1,80c0,8.8-5.5,15.9-12.3,15.9c-6.8,0-12.3-7.1-12.3-15.9c0-8.8,5.5-15.9,12.3-15.9
	C90.6,64.2,96.1,71.3,96.1,80z"/>
<g>
	<path class="st2" d="M81.8,87.2c-0.5,0-0.8-0.5-0.8-1.1V73.9c0-0.6,0.4-1.1,0.8-1.1H86c1.8,0,3.4,1.9,3.4,4.3s-1.5,4.3-3.4,4.3
		h-3.4v4.7C82.7,86.7,82.3,87.2,81.8,87.2z M82.7,79.3H86c0.9,0,1.7-1,1.7-2.2S87,75,86,75h-3.4V79.3z"/>
	<path class="st2" d="M85.2,85.1h-6.1c-0.5,0-0.8-0.5-0.8-1.1c0-0.6,0.4-1.1,0.8-1.1h6.1c0.5,0,0.8,0.5,0.8,1.1
		C86,84.6,85.7,85.1,85.2,85.1z"/>
</g>
</svg>
