<svg version="1.1" id="Capa_1" xmlns="http://www.w3.org/2000/svg" x="0" y="0" viewBox="0 0 97.2 97.3" xml:space="preserve"><style>.st1{fill:#17c5ec}.st2{fill:#76e1f7}</style><path d="M2.8 80.7h11.7v12.9c0 .6.2 1.2.5 1.5.3.4.7.6 1.2.6h8.7c.4 0 .8-.2 1.2-.6s.5-.9.5-1.5V80.7h26.3c.5 0 .9-.2 1.2-.6.3-.4.5-.9.5-1.5V70c0-.6-.2-1.2-.5-1.5-.3-.4-.7-.6-1.2-.6H26.5v-8h17.7c7 0 12.6-2.7 17-8.2 4.4-5.5 6.6-12.5 6.6-21.2s-2.2-15.7-6.6-21.2c-4.4-5.6-10-8.3-17-8.3H16.1c-.5 0-.9.2-1.2.6-.3.4-.5.9-.5 1.5v42.3H2.8c-.5 0-.9.2-1.2.6-.3.4-.5.9-.5 1.5v10c0 .6.2 1.2.5 1.5.3.4.7.6 1.2.6h11.7v8H2.8c-.5 0-.9.2-1.2.6-.3.4-.5.9-.5 1.5v8.6c0 .6.2 1.2.5 1.5.3.7.7.9 1.2.9zm23.7-65.4h16.7c3.7 0 6.6 1.4 8.9 4.2 2.3 2.8 3.4 6.4 3.4 10.9s-1.1 8.1-3.4 10.9c-2.3 2.8-5.2 4.2-8.9 4.2H26.5V15.3z" fill="#417dfe"/><path class="st1" d="M96.1 16.8c0 8.8-5.5 15.9-12.3 15.9-6.8 0-12.3-7.1-12.3-15.9S77 .9 83.8.9C90.6.9 96.1 8 96.1 16.8z"/><path class="st2" d="M81.8 24c-.5 0-.8-.5-.8-1.1V10.6c0-.6.4-1.1.8-1.1H86c1.8 0 3.4 1.9 3.4 4.3s-1.5 4.3-3.4 4.3h-3.4v4.7c.1.7-.3 1.2-.8 1.2zm.9-8H86c.9 0 1.7-1 1.7-2.2s-.7-2.1-1.7-2.1h-3.4V16z"/><path class="st2" d="M85.2 21.8h-6.1c-.5 0-.8-.5-.8-1.1s.4-1.1.8-1.1h6.1c.5 0 .8.5.8 1.1s-.3 1.1-.8 1.1z"/><path class="st1" d="M96.1 48.3c0 8.8-5.5 15.9-12.3 15.9-6.8 0-12.3-7.1-12.3-15.9S77 32.4 83.8 32.4c6.8 0 12.3 7.1 12.3 15.9z"/><path class="st2" d="M81.8 55.5c-.5 0-.8-.5-.8-1.1V42.1c0-.6.4-1.1.8-1.1H86c1.8 0 3.4 1.9 3.4 4.3s-1.5 4.3-3.4 4.3h-3.4v4.7c.1.7-.3 1.2-.8 1.2zm.9-7.9H86c.9 0 1.7-1 1.7-2.2s-.7-2.2-1.7-2.2h-3.4v4.4z"/><path class="st2" d="M85.2 53.3h-6.1c-.5 0-.8-.5-.8-1.1 0-.6.4-1.1.8-1.1h6.1c.5 0 .8.5.8 1.1s-.3 1.1-.8 1.1z"/><path class="st1" d="M96.1 80c0 8.8-5.5 15.9-12.3 15.9-6.8 0-12.3-7.1-12.3-15.9S77 64.1 83.8 64.1c6.8.1 12.3 7.2 12.3 15.9z"/><path class="st2" d="M81.8 87.2c-.5 0-.8-.5-.8-1.1V73.9c0-.6.4-1.1.8-1.1H86c1.8 0 3.4 1.9 3.4 4.3s-1.5 4.3-3.4 4.3h-3.4v4.7c.1.6-.3 1.1-.8 1.1zm.9-7.9H86c.9 0 1.7-1 1.7-2.2S87 75 86 75h-3.4v4.3z"/><path class="st2" d="M85.2 85.1h-6.1c-.5 0-.8-.5-.8-1.1 0-.6.4-1.1.8-1.1h6.1c.5 0 .8.5.8 1.1 0 .6-.3 1.1-.8 1.1z"/></svg>