<svg version="1.1" id="Слой_1" xmlns="http://www.w3.org/2000/svg" x="0" y="0" viewBox="0 0 97.6 97.6" xml:space="preserve"><style>.st0{fill:#fefefe}.st4{fill:#00c0ef}.st5{fill:#dff3fe}</style><path class="st0" d="M63.6.7C73.7.7 83.9.8 94 .6c2.2 0 2.7.5 2.7 2.7-.1 28.4-.1 56.7-.1 85.1-1.2-2.2-1-4.7-1.5-7-.8-4.4-1.6-9-6.5-10.8-6.5-2.5-13.2-4.7-19.7-7-.5-1-1.4-.6-2.2-.6-2.1-.3-3.9-1.6-6.1-1.5 0-2.5 0-4.9.1-7.4 1.2-1 2.2-2.2 3.2-3.5 3.6-4.5 3.7-10.1 5.1-15.3 4.6-5.8 3.7-12.7 3.7-19.4 0-3.6-1.5-6.3-4.6-8.1-.8-.4-1.7-.7-1.4-1.8.6-2.8-1.4-4-3.1-5.3zm-63 87C.6 59.8.6 31.9.5 4 .5 1.5.7.6 3.7.6c11 .2 21.9.1 32.9.1-6 2.3-11.2 5.9-11.8 12.7-.6 6.9-1.4 14.2 3.6 20.3.4.7.8 1.5.8 2.4-.2 7.2 1.9 13.6 7.6 18.4 0 2.3-.1 4.6-.1 6.8-2.2-.2-4.1.7-6 1.5-.8.1-1.7-.4-2.2.6-7 2-13.9 4.5-20.5 7.5-2.7 1.2-4.1 3.6-5 6.4-1.3 3.6-.8 7.2-2.4 10.4z"/><path d="M.6 87.7c1.6-3.2 1.1-6.8 2.2-10.2.9-2.8 2.2-5.2 5-6.4 6.7-3 13.5-5.5 20.5-7.5.4 3.1-1.5 5.4-2.8 7.9-1 2-.8 3.3.8 4.9 5.8 5.4 11.5 10.9 17.2 16.4.5.5 1.3.7 1.9 1 2.9 3.2 3.3 3.2 6.2 0 7.4-5.9 14.6-12 20.4-19.5.9-1.2.1-2-.5-3-1.3-2.4-3.1-4.6-2.7-7.6 6.6 2.3 13.2 4.5 19.7 7 4.9 1.9 5.7 6.4 6.5 10.8.4 2.3.3 4.8 1.5 7v6c-2.1 1.8-4.4 2.3-7.2 2.3-27.2-.1-54.4-.1-81.7 0-2.8 0-5.1-.5-7.2-2.3.2-2.3.2-4.6.2-6.8z" fill="#1edffe"/><path d="M28.3 33.8c-5-6.1-4.2-13.4-3.6-20.3C25.4 6.6 30.6 3 36.6.7h27c1.7 1.4 3.7 2.5 3 5.3-.3 1.1.7 1.3 1.4 1.8 3.1 1.8 4.6 4.5 4.6 8.1-.1 6.7.9 13.6-3.7 19.4v-7.8c0-8.3-10.4-15.9-18.4-13.2-4.4 1.5-8.8 2.4-13.5 2.3-5.2-.1-8.5 3.4-8.6 8.7-.1 2.7-.1 5.6-.1 8.5z" fill="#1c62fb"/><path class="st0" d="M.6 94.4c2.1 1.8 4.4 2.3 7.2 2.3 27.2-.1 54.4-.1 81.7 0 2.8 0 5.1-.5 7.2-2.3.3 2 .1 3.1-2.6 3.1-30.2-.1-60.5-.1-90.7 0-2.9 0-3.1-1-2.8-3.1z"/><path d="M28.3 33.8v-8.6c.1-5.2 3.4-8.8 8.6-8.7 4.7.1 9.1-.7 13.5-2.3 8-2.7 18.4 4.9 18.4 13.2v7.8c-1.3 5.2-1.4 10.8-5.1 15.3-1 1.2-1.9 2.5-3.2 3.5-4 3-7.7 6.4-13.3 5.9-4.4-.3-7.1-3.7-10.7-5.4-5.6-4.9-7.8-11.2-7.6-18.4.2-.9-.1-1.6-.6-2.3z" fill="#417dfe"/><path class="st4" d="M68.9 63.6c-.4 3 1.4 5.2 2.7 7.6.5 1 1.4 1.9.5 3-5.8 7.5-13 13.6-20.4 19.5v-3.8c3.3-5.9 7-11.6 9.8-17.8C63 69 65 66 66.7 63c.8 0 1.7-.4 2.2.6z"/><path class="st5" d="M66.7 63c-1.7 3-3.7 6-5.1 9.2-2.9 6.1-6.6 11.8-9.9 17.7-.8-7.2 1.6-14.8-2.4-21.7 4.2-1.6 6.8-5.7 11.3-6.8 2.2-.1 4 1.3 6.1 1.6z"/><path d="M60.6 61.4c-4.5 1-7.2 5.2-11.3 6.8h-1.4c-3.9-2.1-7-5.5-11.4-6.8 0-2.3.1-4.6.1-6.8 3.6 1.7 6.3 5 10.7 5.4 5.6.4 9.3-3 13.3-5.9v7.3z" fill="#bbdcfe"/><path class="st4" d="M45.5 93.7c-.6-.3-1.4-.5-1.9-1-5.8-5.4-11.4-11-17.2-16.4-1.6-1.5-1.9-2.9-.8-4.9 1.3-2.5 3.3-4.8 2.8-7.9.5-1 1.4-.6 2.2-.6 5 9 10 18 15 26.9-.1 1.4-.1 2.6-.1 3.9z"/><path class="st5" d="M45.5 89.9c-5-9-10-18-15-26.9 1.9-.8 3.8-1.7 6-1.5 4.4 1.3 7.5 4.6 11.4 6.8-2.3 4-2.6 8.4-2.4 12.9.2 2.8 0 5.8 0 8.7z"/><path d="M45.5 89.9c0-3 .2-5.9.1-8.9-.2-4.5 0-8.9 2.4-12.9h1.4c4 6.9 1.6 14.5 2.4 21.7v3.8c-2.9 3.2-3.3 3.2-6.2 0-.1-1.2-.1-2.4-.1-3.7z" fill="#3b5757"/></svg>