<svg version="1.1" id="Слой_1" xmlns="http://www.w3.org/2000/svg" x="0" y="0" viewBox="0 0 464 464" xml:space="preserve"><style>.st4{fill:#00c7ef}</style><path d="M160 0h232c4.4 0 8 3.6 8 8v448c0 4.4-3.6 8-8 8H88c-4.4 0-8-3.6-8-8V80l80-80z" fill="#1c62fb"/><path d="M136 304h160v40H136v-40zm-24 40h160v40H112v-40zm24 40h160v40H136v-40z" fill="#00e3f9" stroke="#00c7ef" stroke-width="5" stroke-miterlimit="10"/><path d="M112 424h160v40H112v-40z" fill="#00e3f9" stroke="#00c7ef" stroke-width="4" stroke-miterlimit="10"/><path d="M160 72V0L80 80h72c4.4 0 8-3.6 8-8z" fill="#bcd8eb"/><path class="st4" d="M320 232c0 39.8-32.2 72-72 72s-72-32.2-72-72 32.2-72 72-72 72 32.2 72 72z"/><path class="st4" d="M272.2 164.2c30.2 20.2 40.6 59.8 24.2 92.2S242 304 207.8 291.7c23.1 15.6 53.2 16.5 77.2 2.2s37.6-41.2 34.8-68.9c-2.7-27.7-21.3-51.4-47.6-60.8z"/><path d="M256 184h-16v9.5c-11 3.9-17.6 15.1-15.6 26.6 2 11.5 12 19.9 23.6 19.9 4.4 0 8 3.6 8 8s-3.6 8-8 8h-24v16h16v8h16v-9.5c11-3.9 17.6-15.1 15.6-26.6-2-11.5-12-19.9-23.6-19.9-4.4 0-8-3.6-8-8s3.6-8 8-8h24v-16h-16v-8z" fill="#00e3f9"/><path d="M200 56h120c4.4 0 8 3.6 8 8s-3.6 8-8 8H200c-4.4 0-8-3.6-8-8s3.6-8 8-8zm-88 48h256c4.4 0 8 3.6 8 8s-3.6 8-8 8H112c-4.4 0-8-3.6-8-8s3.6-8 8-8zm0 32h80c4.4 0 8 3.6 8 8s-3.6 8-8 8h-80c-4.4 0-8-3.6-8-8s3.6-8 8-8zm200 0h56c4.4 0 8 3.6 8 8s-3.6 8-8 8h-56c-4.4 0-8-3.6-8-8s3.6-8 8-8z" fill="#8c8c8c"/></svg>