<svg version="1.1" id="Слой_1" xmlns="http://www.w3.org/2000/svg" x="0" y="0" viewBox="0 0 512 512" xml:space="preserve"><style>.st0{fill:#1c62fb}.st2{fill:#007eff}</style><path class="st0" d="M317 0H75v512h362V120l-85-30-35-90z"/><path class="st0" d="M317 0h-61v512h181V120l-85-30-35-90z"/><path d="M317 120h120L317 0v120z" fill="#bcd8eb"/><path class="st2" d="M40 195h432v226H40V195z"/><path class="st2" d="M256 195h216v226H256V195z"/><path d="M142.5 242H98v136h30v-45h14.5c25.1 0 45.5-20.4 45.5-45.5S167.6 242 142.5 242zm0 61H128v-31h14.5c8.5 0 15.5 7 15.5 15.5s-7 15.5-15.5 15.5zM248 242h-30v136h30c33.1 0 60-26.9 60-60v-16c0-33.1-26.9-60-60-60zm30 76c0 16.5-13.5 30-30 30v-76c16.5 0 30 13.5 30 30v16z" fill="#fff3f3"/><path d="M256 242.6v30.5c12.7 3.5 22 15.1 22 28.9v16c0 13.8-9.3 25.4-22 28.9v30.5c29.3-3.9 52-29.1 52-59.5v-16c0-30.3-22.7-55.4-52-59.3zM415 272v-30h-75v136h30v-41.5h30v-30h-30V272h45z" fill="#e9dfda"/></svg>