<svg version="1.1" id="Layer_1" xmlns="http://www.w3.org/2000/svg" x="0" y="0" viewBox="0 0 511.9 511.9" xml:space="preserve"><style>.st1{fill:#3b5757}.st2{fill:#00c0ef}.st5{fill:#417dfe}.st6{fill:#5c546a}</style><path d="M436.5 358l-75-14c-.5-.1-1-.1-1.5-.1H152c-.5 0-1 0-1.5.1l-75.7 14.2C36.1 369 15.9 407 15.9 439v43.8c0 16 14.4 29 32 29h416c17.6 0 32-13 32-29V439c0-32-20.2-70-59.4-81z" fill="#1ef3fe"/><path class="st1" d="M294.7 511.9l-14.9-89.3c-.6-3.9-4-6.7-7.9-6.7h-32c-3.9 0-7.3 2.8-7.9 6.7l-14.9 89.3h77.6z"/><path class="st1" d="M287.9 376c0-4.4-3.6-8-8-8h-40c-3 0-5.8 1.7-7.2 4.4l-8 16c-.6 1.1-.9 2.4-.8 3.6l.1 15.8c0 13.2 10.8 24 24 24h16c13.2 0 24-10.8 24-24l-.1-31.8z"/><path class="st2" d="M259.8 345.1l-71.9-40.2c-3.5-2-7.9-1-10.3 2.2l-30.2 40c-2.1 2.7-2.2 6.5-.2 9.3l48.8 72c2.7 4 7 6.5 11.7 6.9.5 0 1 .1 1.5.1 4.2 0 8.3-1.7 11.3-4.7l.6-.6 33.1-41.2c.4-.4.7-.9.9-1.4l7.9-15.8c.6-1.1.9-2.3.9-3.6v-16c0-3-1.6-5.6-4.1-7z"/><path class="st2" d="M252 345.1l71.9-40.2c3.5-2 7.9-1 10.3 2.2l30.2 40c2.1 2.7 2.2 6.5.2 9.3l-48.8 72c-2.7 4-7 6.5-11.7 6.9-.5 0-1 .1-1.5.1-4.2 0-8.3-1.7-11.3-4.7l-.6-.6-33.1-41.2c-.4-.4-.7-.9-.9-1.4l-7.9-15.8c-.6-1.1-.9-2.3-.9-3.6v-16c0-3 1.6-5.6 4.1-7z"/><path d="M367.9 152l-15.8-16s-54.2-14.7-168.2 0l-48 16v56c0 79.5 53.7 144 120 144s120-64.5 120-144v-56c-2.1 2.3-8 0-8 0z" fill="#badcfe"/><path d="M441.9 60.3L279.2 4.5c-17.6-6-37-6-54.7 0L61.8 60.3c-8.5 2.9-14 10.6-14 19.6s5.5 16.7 14 19.6l79.6 27.3c.8.3 1.7.4 2.6.4h.1l224-2.8c.8 0 1.7-.2 2.5-.4L442 99.5c8.5-2.9 14-10.6 14-19.6s-5.6-16.7-14.1-19.6z" fill="#1b62fb"/><path class="st5" d="M228.5 141.2c8.5-.6 17.6-1 27.4-1 9.9 0 19 .4 27.4 1 32.6 1.9 71.3 7.3 92.6 18.8V96c0-27.5-62.2-40-120-40s-120 12.5-120 40v64c21.3-11.5 60-16.9 92.6-18.8z"/><path class="st6" d="M255.9 100.4c-34.7 0-92.2 4.6-120 19.7v20.3c0-7 42.1-24 120-24s120 17 120 24V120c-27.7-15.1-85.2-19.6-120-19.6z"/><path class="st5" d="M255.9 56l-.1 84.2h.1c9.9 0 19 .4 27.4 1 32.6 1.9 71.3 7.3 92.6 18.8V96c0-27.4-62.2-40-120-40z"/><path class="st6" d="M255.9 100.4v16h.1c77.9 0 120 17 120 24V120c-27.8-15.1-85.3-19.6-120.1-19.6z"/><path class="st2" d="M95.9 458.4c0-17-6.7-33.3-18.7-45.3l-35.5-35.5c-17 16.8-25.8 40.4-25.8 61.4v43.8c0 16 14.4 29 32 29h48v-53.4zm374.2-80.7l-35.5 35.5c-12 12-18.7 28.3-18.7 45.3V512h48c17.6 0 32-13 32-29v-44c0-21-8.7-44.5-25.8-61.3z"/></svg>