<?xml version="1.0" encoding="utf-8"?>
<!-- Generator: Adobe Illustrator 22.0.1, SVG Export Plug-In . SVG Version: 6.00 Build 0)  -->
<svg version="1.1" id="Layer_1" xmlns="http://www.w3.org/2000/svg" xmlns:xlink="http://www.w3.org/1999/xlink" x="0px" y="0px"
	 viewBox="0 0 102 100.8" style="enable-background:new 0 0 102 100.8;" xml:space="preserve">
<style type="text/css">
	.st0{fill:#0062FF;}
	.st1{fill:#ADDEFF;}
	.st2{fill:#00DBF9;}
	.st3{fill:#255656;}
	.st4{fill:#007EFF;}
	.st5{fill:#00C2F2;}
</style>
<path class="st0" d="M72.5,42.6v1.5c0,1.8,0.2,3.6,0.6,5.3l2.4,10.1h4.6V36.3H77C74.5,36.3,72.5,39.1,72.5,42.6z"/>
<path class="st0" d="M93.4,47l-2.6,12.5L78.6,44.7c-1.7,0-3.1-1.9-3.1-4.2l0,0c0-3.5,2.1-6.3,4.6-6.3h10.7c1.7,0,3.1,1.9,3.1,4.2v4
	C93.9,43.9,93.7,45.5,93.4,47z"/>
<rect x="78.6" y="65.8" class="st1" width="9.2" height="9.3"/>
<path class="st1" d="M78.6,69.7c1.4,0.8,3,1.2,4.6,1.2c1.6,0,3.2-0.4,4.6-1.2v-3.9h-9.2L78.6,69.7L78.6,69.7z"/>
<path class="st2" d="M95.2,73.9L87.8,71l-4.6,4.2L78.6,71l-7.4,2.9c-2,0.8-3.3,3.3-3.3,6.1v15.4c0,1.2,0.7,2.1,1.5,2.1H97
	c0.8,0,1.5-0.9,1.5-2.1V80C98.5,77.1,97.1,74.6,95.2,73.9z"/>
<polygon class="st3" points="84.7,97.5 81.6,97.5 82.4,75.2 83.9,75.2 "/>
<path class="st4" d="M83.2,67.9L83.2,67.9c-5.1,0-9.2-5.7-9.2-12.7v-2.5c0-1.1,0.3-2.2,0.9-3l2.8-3.8c0.6-0.8,1.4-1.3,2.2-1.2
	c4.9,0.2,9.2,1.7,11.6,4.8c0.6,0.8,0.9,1.9,0.9,3v2.7C92.4,62.3,88.3,67.9,83.2,67.9z"/>
<path class="st4" d="M78.6,53.3c0-2.4,1.5-4.4,3.2-4.2c3.1,0.3,7.7,1,10.5,2.9c-0.1-0.9-0.4-1.7-0.8-2.4c-2.4-3.2-6.7-4.6-11.6-4.8
	l0,0v0c-0.8,0-1.6,0.4-2.2,1.2l-2.8,3.8c-0.6,0.8-0.9,1.9-0.9,3v2.5c0,5.8,2.8,10.6,6.6,12.2c-1.3-2.2-2-4.9-2-7.9L78.6,53.3
	L78.6,53.3z"/>
<path class="st5" d="M92.4,86.2c0-1.7,0.5-3.3,1.3-4.5l3.9-5.4c0.5,1,0.8,2.3,0.8,3.6v15.4c0,1.2-0.7,2.1-1.5,2.1h-4.6L92.4,86.2
	L92.4,86.2z"/>
<path class="st3" d="M83.9,79.4h-1.5c-0.4,0-0.8-0.5-0.8-1.1v-3.2h3.1v3.2C84.7,78.9,84.4,79.4,83.9,79.4z"/>
<g>
	<path class="st5" d="M83.2,75.2l-2.6,2.7c-0.4,0.5-1.1,0.3-1.4-0.4l-2.3-5.9l0.9-2c0.2-0.4,0.7-0.5,0.9-0.2L83.2,75.2z"/>
	<path class="st5" d="M83.2,75.2l2.6,2.7c0.4,0.5,1.1,0.3,1.4-0.4l2.3-5.9l-0.9-2c-0.2-0.4-0.7-0.5-0.9-0.2L83.2,75.2z"/>
</g>
<path class="st0" d="M30.9,67.1c-1.3-4.8-2.3-13-2.6-17.3C27.9,41.6,23.5,35,17.5,35S7,41.6,6.6,49.8C6.3,54.1,5.3,62.3,4,67.1
	c-0.3,1.1,0,2.2,0.8,2.7c1.4,0.9,4.4,2.6,8,3.3h9.3c3.6-0.7,6.6-2.4,8-3.3C30.9,69.3,31.2,68.1,30.9,67.1z"/>
<path class="st0" d="M30.1,69.7c0.8-0.5,1.1-1.6,0.8-2.7c-1.3-4.8-2.3-13-2.6-17.3C27.9,41.6,23.5,35,17.5,35c0,0,0,0,0,0
	c-4.6,0-6.3,8.7-2.3,11.9c0.2,0.2,0.4,0.3,0.4,0.3L19,73h3.1C25.7,72.3,28.7,70.6,30.1,69.7z"/>
<path class="st1" d="M28.5,77.2l-5-3.4c-1-0.7-1.7-2.2-1.7-3.8l0-6.3h-9.2v6.3c0,1.6-0.7,3.1-1.7,3.8l-5,3.4
	c-1.6,1.1-2.5,3.3-2.5,5.7v12.5c0,1.2,0.7,2.1,1.5,2.1h24.5c0.8,0,1.5-0.9,1.5-2.1V82.9C31.1,80.5,30.1,78.3,28.5,77.2z"/>
<path class="st1" d="M17.3,72.2c1.6,0,3.2-0.5,4.7-1.3c0-0.3-0.1-0.5-0.1-0.8l0-6.3h-9.2v6.3c0,0.3,0,0.5-0.1,0.8
	C14.1,71.7,15.6,72.2,17.3,72.2z"/>
<path class="st2" d="M28.5,77.2L25,74.8c-1.6,3.5-4.5,5.8-7.7,5.8s-6.1-2.3-7.7-5.8L6,77.2c-1.6,1.1-2.5,3.3-2.5,5.7v12.5
	c0,1.2,0.7,2.1,1.5,2.1h24.5c0.8,0,1.5-0.9,1.5-2.1V82.9C31.1,80.5,30.1,78.3,28.5,77.2z"/>
<path class="st4" d="M17.3,67.9L17.3,67.9c-4.7,0-8.5-4.8-9.1-11C8.1,56,8.4,55.1,9,54.7c0.7-0.5,1.7-1.3,2.7-2.5
	c1.1-1.3,1.7-2.8,2.1-3.8c0.3-0.9,1-1.4,1.7-1.2c5.4,1.9,9.1,5.8,10.4,7.3c0.4,0.4,0.6,1,0.5,1.7C26.1,62.8,22.1,67.9,17.3,67.9z"/>
<path class="st4" d="M25.9,54.6c-1.3-1.6-5-5.4-10.4-7.3c-0.7-0.2-1.4,0.3-1.7,1.2c-0.3,0.8-0.7,1.8-1.4,2.8c0,0,0,0,0,0
	c-0.2,0.3-0.4,0.7-0.7,1c-1,1.2-2,2-2.7,2.5c-0.6,0.4-0.9,1.3-0.8,2.2c0.5,5.6,3.7,10,7.7,10.9c-1.8-1.7-3.2-4.1-3.2-8.3v-3
	c0.3-0.4,0.7-0.7,1.1-1.1c0.9-1,1.6-2.3,2.2-3.6c4.1,1.8,6.9,4.7,8,6c0.3,0.4,1,1.3,1.9,2.4c0.4-1.2,0.6-2.5,0.7-3.8
	C26.5,55.6,26.3,55,25.9,54.6z"/>
<path class="st5" d="M4.4,79.1c-0.6,1.1-0.9,2.4-0.9,3.8v12.5c0,1.2,0.7,2.1,1.5,2.1h4.6V86.9c0-1.3-0.4-2.5-1.2-3.3L4.4,79.1z"/>
<path class="st2" d="M73,74.4l-12.8-6.4L51,72.2l-9.2-4.2L29,74.4c-2.4,1.2-4,4.4-4,7.9v13.1c0,1.2,0.7,2.1,1.5,2.1h49
	c0.8,0,1.5-0.9,1.5-2.1V82.3C77,78.8,75.4,75.6,73,74.4z"/>
<polygon class="st3" points="49.4,76.4 47.9,97.5 54.1,97.5 52.6,76.4 "/>
<path class="st3" d="M52.6,79.3h-3.2c-0.6,0-1.1-0.7-1.1-1.5v-5.6h5.4v5.6C53.7,78.6,53.2,79.3,52.6,79.3z"/>
<path class="st5" d="M75.4,76.5c1,1.5,1.6,3.6,1.6,5.8v13.1c0,1.2-0.7,2.1-1.5,2.1h-7.7v-7.1c0-2.2,0.6-4.4,1.8-6L75.4,76.5z"/>
<path class="st0" d="M67.9,24.4V6.7c0-2.3-1.4-4.2-3.1-4.2H46.4c-6.8,0-12.3,7.6-12.3,16.9v5c0,2.3,0.3,4.5,0.8,6.7l0.5,2.1
	c0.2,0.6,0.2,1.3,0.2,2v1.1h30.6v-1.1c0-0.7,0.1-1.4,0.2-2l0.5-2.1C67.6,28.9,67.9,26.7,67.9,24.4z"/>
<path class="st0" d="M41.8,11.1c0,4.7,2.8,8.6,6.2,8.6h0.9l0.4,16.6h17v-1.1c0-0.7,0.1-1.4,0.2-2l0.5-2.1c0.5-2.2,0.8-4.4,0.8-6.7
	V6.7c0-2.3-1.4-4.2-3.1-4.2H48C44.6,2.5,41.8,6.3,41.8,11.1z"/>
<rect x="41.8" y="53.2" class="st1" width="18.4" height="19"/>
<path class="st1" d="M41.8,60.3c2.7,2.2,5.8,3.4,9.2,3.4s6.5-1.3,9.2-3.4v-7.1H41.8L41.8,60.3L41.8,60.3z"/>
<g>
	<path class="st5" d="M51,72.2l-4.9,6.7c-0.7,0.9-1.7,0.8-2.3-0.2l-5.1-9.2l1.3-3.8c0.4-1.1,1.4-1.6,2.2-0.9L51,72.2z"/>
	<path class="st5" d="M51,72.2l4.9,6.7c0.7,0.9,1.7,0.8,2.3-0.2l5.1-9.2l-1.3-3.8c-0.4-1.1-1.4-1.6-2.2-0.9L51,72.2z"/>
</g>
<path class="st4" d="M51,59.5L51,59.5c-8.5,0-15.3-9.5-15.3-21.1v-2.5c0-1.1,0.3-2.2,0.9-3l1.3-1.7c0.6-0.8,0.9-1.9,0.9-3v-5.1
	c0-1,0.5-1.8,1.2-2.1c3.6-1.2,14.9-4,22.6,3.8c0.5,0.5,0.8,1.3,0.8,2.2v1.1c0,1.1,0.3,2.2,0.9,3l1.3,1.7c0.6,0.8,0.9,1.9,0.9,3v2.5
	C66.3,50,59.5,59.5,51,59.5z"/>
<path class="st4" d="M62.5,24.9c-5.4-5.5-12.6-5.7-17.6-5c-2.1,0.3-3.9,0.8-5,1.2c-0.7,0.2-1.2,1.1-1.2,2.1v5.1c0,1.1-0.3,2.2-0.9,3
	l-1.3,1.7c-0.6,0.8-0.9,1.9-0.9,3v2.5c0,10.8,5.9,19.7,13.5,20.9c-2.6-3.8-4.3-8.9-4.3-14.6V29.3c0-2.1,1.2-3.9,2.7-4.2
	c3.7-0.6,10.4-1,15.7,3.1v-1.1C63.3,26.2,63,25.4,62.5,24.9z"/>
<path class="st5" d="M26.6,76.5c-1,1.5-1.6,3.6-1.6,5.8v13.1c0,1.2,0.7,2.1,1.5,2.1h7.7v-7.1c0-2.2-0.6-4.4-1.8-6L26.6,76.5z"/>
</svg>
