<svg version="1.1" id="Layer_1" xmlns="http://www.w3.org/2000/svg" x="0" y="0" viewBox="0 0 102 100.8" xml:space="preserve"><style>.st0{fill:#0062ff}.st1{fill:#addeff}.st2{fill:#00dbf9}.st3{fill:#255656}.st4{fill:#007eff}.st5{fill:#00c2f2}</style><path class="st0" d="M72.5 42.6v1.5c0 1.8.2 3.6.6 5.3l2.4 10.1h4.6V36.3H77c-2.5 0-4.5 2.8-4.5 6.3z"/><path class="st0" d="M93.4 47l-2.6 12.5-12.2-14.8c-1.7 0-3.1-1.9-3.1-4.2 0-3.5 2.1-6.3 4.6-6.3h10.7c1.7 0 3.1 1.9 3.1 4.2v4c0 1.5-.2 3.1-.5 4.6z"/><path class="st1" d="M78.6 65.8h9.2v9.3h-9.2z"/><path class="st1" d="M78.6 69.7c1.4.8 3 1.2 4.6 1.2 1.6 0 3.2-.4 4.6-1.2v-3.9h-9.2v3.9z"/><path class="st2" d="M95.2 73.9L87.8 71l-4.6 4.2-4.6-4.2-7.4 2.9c-2 .8-3.3 3.3-3.3 6.1v15.4c0 1.2.7 2.1 1.5 2.1H97c.8 0 1.5-.9 1.5-2.1V80c0-2.9-1.4-5.4-3.3-6.1z"/><path class="st3" d="M84.7 97.5h-3.1l.8-22.3h1.5z"/><path class="st4" d="M83.2 67.9c-5.1 0-9.2-5.7-9.2-12.7v-2.5c0-1.1.3-2.2.9-3l2.8-3.8c.6-.8 1.4-1.3 2.2-1.2 4.9.2 9.2 1.7 11.6 4.8.6.8.9 1.9.9 3v2.7c0 7.1-4.1 12.7-9.2 12.7z"/><path class="st4" d="M78.6 53.3c0-2.4 1.5-4.4 3.2-4.2 3.1.3 7.7 1 10.5 2.9-.1-.9-.4-1.7-.8-2.4-2.4-3.2-6.7-4.6-11.6-4.8-.8 0-1.6.4-2.2 1.2l-2.8 3.8c-.6.8-.9 1.9-.9 3v2.5c0 5.8 2.8 10.6 6.6 12.2-1.3-2.2-2-4.9-2-7.9v-6.3z"/><path class="st5" d="M92.4 86.2c0-1.7.5-3.3 1.3-4.5l3.9-5.4c.5 1 .8 2.3.8 3.6v15.4c0 1.2-.7 2.1-1.5 2.1h-4.6l.1-11.2z"/><path class="st3" d="M83.9 79.4h-1.5c-.4 0-.8-.5-.8-1.1v-3.2h3.1v3.2c0 .6-.3 1.1-.8 1.1z"/><path class="st5" d="M83.2 75.2l-2.6 2.7c-.4.5-1.1.3-1.4-.4l-2.3-5.9.9-2c.2-.4.7-.5.9-.2l4.5 5.8z"/><path class="st5" d="M83.2 75.2l2.6 2.7c.4.5 1.1.3 1.4-.4l2.3-5.9-.9-2c-.2-.4-.7-.5-.9-.2l-4.5 5.8z"/><path class="st0" d="M30.9 67.1c-1.3-4.8-2.3-13-2.6-17.3-.4-8.2-4.8-14.8-10.8-14.8S7 41.6 6.6 49.8C6.3 54.1 5.3 62.3 4 67.1c-.3 1.1 0 2.2.8 2.7 1.4.9 4.4 2.6 8 3.3h9.3c3.6-.7 6.6-2.4 8-3.3.8-.5 1.1-1.7.8-2.7z"/><path class="st0" d="M30.1 69.7c.8-.5 1.1-1.6.8-2.7-1.3-4.8-2.3-13-2.6-17.3-.4-8.1-4.8-14.7-10.8-14.7-4.6 0-6.3 8.7-2.3 11.9.2.2.4.3.4.3L19 73h3.1c3.6-.7 6.6-2.4 8-3.3z"/><path class="st1" d="M28.5 77.2l-5-3.4c-1-.7-1.7-2.2-1.7-3.8v-6.3h-9.2V70c0 1.6-.7 3.1-1.7 3.8l-5 3.4c-1.6 1.1-2.5 3.3-2.5 5.7v12.5c0 1.2.7 2.1 1.5 2.1h24.5c.8 0 1.5-.9 1.5-2.1V82.9c.2-2.4-.8-4.6-2.4-5.7z"/><path class="st1" d="M17.3 72.2c1.6 0 3.2-.5 4.7-1.3 0-.3-.1-.5-.1-.8v-6.3h-9.2v6.3c0 .3 0 .5-.1.8 1.5.8 3 1.3 4.7 1.3z"/><path class="st2" d="M28.5 77.2L25 74.8c-1.6 3.5-4.5 5.8-7.7 5.8s-6.1-2.3-7.7-5.8L6 77.2c-1.6 1.1-2.5 3.3-2.5 5.7v12.5c0 1.2.7 2.1 1.5 2.1h24.5c.8 0 1.5-.9 1.5-2.1V82.9c.1-2.4-.9-4.6-2.5-5.7z"/><path class="st4" d="M17.3 67.9c-4.7 0-8.5-4.8-9.1-11-.1-.9.2-1.8.8-2.2.7-.5 1.7-1.3 2.7-2.5 1.1-1.3 1.7-2.8 2.1-3.8.3-.9 1-1.4 1.7-1.2 5.4 1.9 9.1 5.8 10.4 7.3.4.4.6 1 .5 1.7-.3 6.6-4.3 11.7-9.1 11.7z"/><path class="st4" d="M25.9 54.6c-1.3-1.6-5-5.4-10.4-7.3-.7-.2-1.4.3-1.7 1.2-.3.8-.7 1.8-1.4 2.8-.2.3-.4.7-.7 1-1 1.2-2 2-2.7 2.5-.6.4-.9 1.3-.8 2.2.5 5.6 3.7 10 7.7 10.9-1.8-1.7-3.2-4.1-3.2-8.3v-3c.3-.4.7-.7 1.1-1.1.9-1 1.6-2.3 2.2-3.6 4.1 1.8 6.9 4.7 8 6 .3.4 1 1.3 1.9 2.4.4-1.2.6-2.5.7-3.8-.1-.9-.3-1.5-.7-1.9z"/><path class="st5" d="M4.4 79.1c-.6 1.1-.9 2.4-.9 3.8v12.5c0 1.2.7 2.1 1.5 2.1h4.6V86.9c0-1.3-.4-2.5-1.2-3.3l-4-4.5z"/><path class="st2" d="M73 74.4L60.2 68 51 72.2 41.8 68 29 74.4c-2.4 1.2-4 4.4-4 7.9v13.1c0 1.2.7 2.1 1.5 2.1h49c.8 0 1.5-.9 1.5-2.1V82.3c0-3.5-1.6-6.7-4-7.9z"/><path class="st3" d="M49.4 76.4l-1.5 21.1h6.2l-1.5-21.1z"/><path class="st3" d="M52.6 79.3h-3.2c-.6 0-1.1-.7-1.1-1.5v-5.6h5.4v5.6c0 .8-.5 1.5-1.1 1.5z"/><path class="st5" d="M75.4 76.5c1 1.5 1.6 3.6 1.6 5.8v13.1c0 1.2-.7 2.1-1.5 2.1h-7.7v-7.1c0-2.2.6-4.4 1.8-6l5.8-7.9z"/><path class="st0" d="M67.9 24.4V6.7c0-2.3-1.4-4.2-3.1-4.2H46.4c-6.8 0-12.3 7.6-12.3 16.9v5c0 2.3.3 4.5.8 6.7l.5 2.1c.2.6.2 1.3.2 2v1.1h30.6v-1.1c0-.7.1-1.4.2-2l.5-2.1c.7-2.2 1-4.4 1-6.7z"/><path class="st0" d="M41.8 11.1c0 4.7 2.8 8.6 6.2 8.6h.9l.4 16.6h17v-1.1c0-.7.1-1.4.2-2l.5-2.1c.5-2.2.8-4.4.8-6.7V6.7c0-2.3-1.4-4.2-3.1-4.2H48c-3.4 0-6.2 3.8-6.2 8.6z"/><path class="st1" d="M41.8 53.2h18.4v19H41.8z"/><path class="st1" d="M41.8 60.3c2.7 2.2 5.8 3.4 9.2 3.4s6.5-1.3 9.2-3.4v-7.1H41.8v7.1z"/><path class="st5" d="M51 72.2l-4.9 6.7c-.7.9-1.7.8-2.3-.2l-5.1-9.2 1.3-3.8c.4-1.1 1.4-1.6 2.2-.9l8.8 7.4zm0 0l4.9 6.7c.7.9 1.7.8 2.3-.2l5.1-9.2-1.3-3.8c-.4-1.1-1.4-1.6-2.2-.9L51 72.2z"/><path class="st4" d="M51 59.5c-8.5 0-15.3-9.5-15.3-21.1v-2.5c0-1.1.3-2.2.9-3l1.3-1.7c.6-.8.9-1.9.9-3v-5.1c0-1 .5-1.8 1.2-2.1 3.6-1.2 14.9-4 22.6 3.8.5.5.8 1.3.8 2.2v1.1c0 1.1.3 2.2.9 3l1.3 1.7c.6.8.9 1.9.9 3v2.5c-.2 11.7-7 21.2-15.5 21.2z"/><path class="st4" d="M62.5 24.9c-5.4-5.5-12.6-5.7-17.6-5-2.1.3-3.9.8-5 1.2-.7.2-1.2 1.1-1.2 2.1v5.1c0 1.1-.3 2.2-.9 3L36.5 33c-.6.8-.9 1.9-.9 3v2.5c0 10.8 5.9 19.7 13.5 20.9-2.6-3.8-4.3-8.9-4.3-14.6V29.3c0-2.1 1.2-3.9 2.7-4.2 3.7-.6 10.4-1 15.7 3.1v-1.1c.1-.9-.2-1.7-.7-2.2z"/><path class="st5" d="M26.6 76.5c-1 1.5-1.6 3.6-1.6 5.8v13.1c0 1.2.7 2.1 1.5 2.1h7.7v-7.1c0-2.2-.6-4.4-1.8-6l-5.8-7.9z"/></svg>