<?xml version="1.0" encoding="utf-8"?>
<!-- Generator: Adobe Illustrator 22.0.1, SVG Export Plug-In . SVG Version: 6.00 Build 0)  -->
<svg version="1.1" id="Layer_1" xmlns="http://www.w3.org/2000/svg" xmlns:xlink="http://www.w3.org/1999/xlink" x="0px" y="0px"
	 viewBox="0 0 512 321.2" style="enable-background:new 0 0 512 321.2;" xml:space="preserve">
<style type="text/css">
	.st0{fill:#16C5EC;}
	.st1{fill:#417DFE;}
	.st2{fill:#1B62FB;}
	.st3{fill:#EDEDEE;}
	.st4{fill:#504B5A;}
	.st5{fill:#DCDBDE;}
	.st6{fill:#625D6B;}
	.st7{fill:#77E1F7;}
	.st8{fill:#1B62FC;}
</style>
<path class="st0" d="M8.8,226.1V276h370.8L512,214.3l-6-23.8c-1.7-7-7.5-12.2-14.6-13.2l-50-7.1l-46.9-40.2
	c-9.6-8.2-21.8-12.8-34.5-12.8H241c-12.9,0-25.1,5.6-33.5,15.4l-39.8,46.4c-75.3,0-128.9,13.1-145.5,23.3
	C13.9,207.4,8.8,216.4,8.8,226.1z"/>
<path class="st1" d="M8.8,231.9v53h335.4L512,258.4v-53c0-4.9-4-8.8-8.8-8.8H158.9C35.3,196.6,8.8,214.3,8.8,231.9L8.8,231.9z"/>
<path class="st2" d="M0,276c0,4.9,3.9,8.8,8.8,8.8h414.9c0.6,0,1.3-0.1,1.9-0.2l79.4-17.7c4.8-1.1,7.8-5.8,6.7-10.5
	c-1.1-4.8-5.8-7.7-10.5-6.7l-78.5,17.4H8.8C3.9,267.2,0,271.2,0,276z"/>
<circle class="st3" cx="88.3" cy="267.2" r="44.1"/>
<path class="st4" d="M35.3,267.2c0-29.2,23.8-53,53-53s53,23.8,53,53s-23.8,53-53,53S35.3,296.4,35.3,267.2z M53,267.2
	c0,19.5,15.8,35.3,35.3,35.3s35.3-15.8,35.3-35.3s-15.8-35.3-35.3-35.3C68.8,231.9,53,247.7,53,267.2z"/>
<circle class="st5" cx="88.3" cy="267.2" r="17.7"/>
<circle class="st3" cx="423.7" cy="267.2" r="44.1"/>
<path class="st4" d="M370.8,267.2c0-29.2,23.8-53,53-53s53,23.8,53,53s-23.8,53-53,53C394.5,320.2,370.8,296.4,370.8,267.2z
	 M388.4,267.2c0,19.5,15.8,35.3,35.3,35.3c19.5,0,35.3-15.8,35.3-35.3s-15.8-35.3-35.3-35.3C404.2,231.9,388.4,247.7,388.4,267.2z"
	/>
<circle class="st5" cx="423.7" cy="267.2" r="17.7"/>
<g>
	<path class="st2" d="M150.1,240.7L150.1,240.7c0-4.9,4-8.8,8.8-8.8h185.4c4.9,0,8.8,4,8.8,8.8l0,0c0,4.9-4,8.8-8.8,8.8H158.9
		C154,249.6,150.1,245.6,150.1,240.7z"/>
	<path class="st2" d="M0,240.7L0,240.7c0-4.9,4-8.8,8.8-8.8h8.8c4.9,0,8.8,4,8.8,8.8l0,0c0,4.9-4,8.8-8.8,8.8H8.8
		C4,249.6,0,245.6,0,240.7z"/>
</g>
<path class="st1" d="M399.9,177c-7.7,1.3-15.4,1.9-23.2,1.9h-209l39.8-46.4c8.4-9.8,20.6-15.4,33.5-15.4h119
	c12.6,0,24.9,4.5,34.5,12.8l46.9,40.2L399.9,177z"/>
<path class="st6" d="M217.9,171.7c-2.4,2.9-0.4,7.2,3.4,7.2h154.6c6.9,0,12.5-5.6,12.5-12.5l0,0c0-3.3-1.3-6.5-3.7-8.8l-26.5-26.5
	c-3.3-3.3-7.8-5.2-12.5-5.2h-81.5c-5.2,0-10.2,2.3-13.6,6.4L217.9,171.7z"/>
<polygon class="st6" points="317.8,126 335.4,126 353.1,178.9 326.6,178.9 "/>
<path class="st7" d="M9.2,223.1h17.3c4.9,0,8.8-4,8.8-8.8s-4-8.8-8.8-8.8h-8.2C13.2,210,10,216.2,9.2,223.1z"/>
<path class="st6" d="M167.7,178.9h18.2c5.2,0,10.2-2.3,13.6-6.4l32.8-39.4c2.4-2.9,0.4-7.2-3.4-7.2h-14.4c-2.6,1.9-4.9,4.1-7,6.6
	L167.7,178.9z"/>
<path class="st7" d="M503.2,196.6h-8.8c-4.9,0-8.8,4-8.8,8.8s4,8.8,8.8,8.8H512v-8.8C512,200.6,508,196.6,503.2,196.6z"/>
<g>
	<path class="st8" d="M70.6,7.8h44c13.8,0,24.5,1.2,31.4,2.9c6.9,2.3,13.2,6.5,17.6,12.9c4.4,6.5,6.3,17,6.3,31.1
		c0,9.4-1.3,16.4-4.4,20c-3.1,4.1-9.4,6.5-18.2,8.8c10,2.3,17,5.9,20.7,11.2c3.8,5.3,5.7,13.5,5.7,24.1v15.3
		c0,11.2-1.3,19.4-3.8,24.7c-2.5,5.3-6.9,8.8-12.6,11.2c-5.7,1.8-17.6,2.9-35.2,2.9H71.3V7.8H70.6z M114.6,36v37c1.9,0,3.1,0,4.4,0
		c4.4,0,6.9-1.2,8.2-2.9c1.3-2.3,1.9-8.2,1.9-17.6c0-5.3-0.6-8.8-1.3-11.2c-0.6-2.3-2.5-3.5-3.8-4.1C122.8,36.6,119.6,36,114.6,36z
		 M114.6,98.8v46.4c6.3,0,10-1.2,11.9-2.9s2.5-5.9,2.5-12.3v-15.3c0-7-0.6-11.2-2.5-12.9C125.3,100,121.5,98.8,114.6,98.8z"/>
</g>
</svg>
