<?xml version="1.0" encoding="utf-8"?>
<!-- Generator: Adobe Illustrator 22.0.1, SVG Export Plug-In . SVG Version: 6.00 Build 0)  -->
<svg version="1.1" id="Слой_1" xmlns="http://www.w3.org/2000/svg" xmlns:xlink="http://www.w3.org/1999/xlink" x="0px" y="0px"
	 viewBox="0 0 1280 1024" style="enable-background:new 0 0 1280 1024;" xml:space="preserve">
<style type="text/css">
	.st0{fill:#FEFEFE;}
	.st1{fill:#417DFE;}
	.st2{fill:#16C5EC;}
	.st3{fill:#504B5A;}
	.st4{fill:#1B62FB;}
	.st5{fill:#625D6B;}
	.st6{fill:#77E1F7;}
	.st7{fill:#DFF3FE;}
	.st8{fill:#BADCFE;}
	.st9{fill:#1B62FC;}
</style>
<g>
	<g>
		<path class="st0" d="M452,452.8c0-15.3,0.1-30.6-0.1-45.9c0-2.1,0.5-2.3,2.4-2.3c29.7,0.1,59.5,0.1,89.2,0c1.9,0,2.4,0.2,2.4,2.3
			c-0.1,30.6-0.1,61.2,0,91.8c0,1.9-0.5,2.2-2.2,2.2c-29.9-0.1-59.7-0.1-89.6,0c-2.3,0-2.2-0.8-2.2-2.5C452,483.2,452,468,452,452.8
			z M491.5,434.9c-3.3,3.5-6.7,7-10,10.5c-6.8-0.1-13.5,0.8-20.1,2.2c-1,0.2-2.1,0.2-2.2,1.5c-1.5,2.1-5,2.3-5.1,5.6
			c-2,1.5-2,2.9,0,4.4c0,0.9,0,1.9,0,2.8c-1.7,0-1.4,1.2-1.3,2.2c0.1,0.9,0.8,1.4,1.7,1.4c1.5,0,3,0,4.5,0c2.5,3.9,5.5,6.4,10.6,5.8
			c4.1-0.4,5.8-3.4,8.3-5.8c13.8,0,27.6,0,41.4,0c0.5,0.8,1.1,1.5,1.6,2.3c2.8,3.9,7,4.3,10.9,3.2c3.4-1,6-3.7,6.4-7.6
			c1.2-0.3,2.5-0.3,3.7-0.8c1.4-0.6,3.3-1.1,2.5-3.4c0-2.4,0-4.8,0.1-7.2c0-1,0.5-2.1-0.6-2.9c-0.1-2.8-2-3.8-4.2-4.2
			c-2.6-0.5-5.3-0.6-7.9-0.9c-2.1-2-4.6-3.8-6.4-6c-2.9-3.7-6.7-4.7-11.1-4.7c-5.7,0-11.4,0.1-17.1,0
			C495,433.3,493.1,433.7,491.5,434.9z"/>
		<path class="st1" d="M454.1,462c0-0.9,0-1.9,0-2.8c1.6-0.1,3.6,0.3,3.6-2.2c0-2.5-2-2.1-3.6-2.2c0.1-3.3,3.6-3.5,5.1-5.6
			c27,0,54.1,0,81.1,0c-1.2,4.8,2.7,2,4.2,2.9c0,2.4,0,4.8-0.1,7.2c-2.2-0.1-4.2,0.6-6.2,1.4c-1.3-5.5-4.3-8.4-8.7-8.6
			c-6.1-0.3-9.8,3.6-10.1,10.8c-13.8,0-27.6,0-41.4,0c0-3.7-1-7.1-4.2-9.2c-5.4-3.6-13.8-1.6-14.7,8.5
			C457.4,462,455.7,462,454.1,462z M498.2,454.9c-5.1,0-10.3,0-15.4,0c-1.6,0-3.4-0.2-3.4,2.1c0,2.3,1.7,2.2,3.3,2.2
			c10.1,0,20.3,0,30.4,0c1.6,0,3.4,0.2,3.4-2.1c0-2.3-1.7-2.2-3.3-2.2C508.2,454.9,503.2,454.9,498.2,454.9z"/>
		<path class="st2" d="M540.3,449.2c-27,0-54.1,0-81.1,0c0.1-1.4,1.2-1.3,2.2-1.5c6.6-1.4,13.3-2.3,20.1-2.2c1.9,0,3.8,0,5.7,0
			c1,0,2,0,3,0c10.7,0,21.5,0,32.2,0c3.1-0.5,6.3-1,9.4-1.4c2.6,0.3,5.3,0.4,7.9,0.9c2.2,0.4,4.2,1.4,4.2,4.2
			C542.7,449.2,541.5,449.2,540.3,449.2z"/>
		<path class="st3" d="M459.1,462.1c0.9-10,9.3-12.1,14.7-8.5c3.2,2.1,4.3,5.5,4.2,9.2c0,1,0,1.9,0,2.9c-2.4,2.4-4.1,5.4-8.3,5.8
			c-5.1,0.5-8.1-2-10.6-5.8C459.1,464.4,459.1,463.3,459.1,462.1z M468.5,467.8c3.4,0,5.7-2.3,5.7-5.7c0-3.2-3-6.4-5.9-6.5
			c-2.9-0.1-5.6,3.1-5.5,6.6C462.8,465.7,464.9,467.8,468.5,467.8z"/>
		<path class="st3" d="M519.3,462.8c0.4-7.2,4-11,10.1-10.8c4.5,0.2,7.4,3.1,8.7,8.6c0,1,0,1.9,0,2.9c-0.4,4-3,6.7-6.4,7.6
			c-3.9,1.1-8.1,0.7-10.9-3.2c-0.5-0.8-1.1-1.5-1.6-2.3C519.3,464.7,519.3,463.7,519.3,462.8z M523,461.9c0,3.6,2,5.9,5.4,5.9
			c3.9,0,6.1-2.2,6.1-6.1c0-3-2.8-6.1-5.7-6.1C525.8,455.6,523.1,458.5,523,461.9z"/>
		<path class="st1" d="M531.7,444c-3.1,0.5-6.3,1-9.4,1.4c0.3-2-0.5-3.5-1.8-5.1c-3.1-4.1-6.9-5.6-11.9-4.9c-2.5,0.3-5,0-7.5,0.1
			c-0.8,0-1.6-0.2-2.3,0.5c-2.9,3.2-5.8,6.3-8.7,9.4c-1,0-2,0-3,0c1.8-1.9,3.5-3.7,5.3-5.6c2.8-2.8,2.7-3.3-1-5
			c1.7-1.3,3.5-1.6,5.6-1.6c5.7,0.1,11.4,0.1,17.1,0c4.4,0,8.2,0.9,11.1,4.7C527.1,440.3,529.5,442,531.7,444z"/>
		<path class="st4" d="M519.3,462.8c0,1,0,1.9,0,2.9c-13.8,0-27.6,0-41.4,0c0-1,0-1.9,0-2.9C491.8,462.8,505.5,462.8,519.3,462.8z"
			/>
		<path class="st5" d="M491.5,434.9c3.7,1.7,3.7,2.2,1,5c-1.8,1.8-3.6,3.7-5.3,5.6c-1.9,0-3.8,0-5.7,0
			C484.8,441.9,488.1,438.4,491.5,434.9z"/>
		<path class="st4" d="M459.1,462.1c0,1.2,0,2.4,0,3.6c-1.5,0-3,0-4.5,0c-0.9,0-1.6-0.5-1.7-1.4c-0.1-1-0.4-2.2,1.3-2.2
			C455.7,462,457.4,462,459.1,462.1z"/>
		<path class="st4" d="M454.1,454.8c1.6,0.1,3.6-0.3,3.6,2.2c0,2.5-2,2.1-3.6,2.2C452.1,457.8,452.1,456.3,454.1,454.8z"/>
		<path class="st4" d="M538.2,463.5c0-1,0-1.9,0-2.9c2-0.7,4-1.4,6.2-1.4c0.8,2.3-1.1,2.8-2.5,3.4
			C540.8,463.1,539.5,463.2,538.2,463.5z"/>
		<path class="st6" d="M540.3,449.2c1.2,0,2.4,0,3.6-0.1c1.1,0.8,0.6,1.9,0.6,2.9C543,451.2,539,454,540.3,449.2z"/>
		<path class="st4" d="M498.2,454.9c5,0,10,0,15,0c1.6,0,3.3-0.1,3.3,2.2c0,2.3-1.8,2.1-3.4,2.1c-10.1,0-20.3,0-30.4,0
			c-1.6,0-3.3,0.1-3.3-2.2c0-2.3,1.9-2.1,3.4-2.1C487.9,454.9,493,454.9,498.2,454.9z"/>
		<path class="st5" d="M490.1,445.5c2.9-3.1,5.8-6.3,8.7-9.4c0.7-0.8,1.5-0.5,2.3-0.5c2.5,0,5.1,0.3,7.5-0.1c5-0.7,8.8,0.9,11.9,4.9
			c1.3,1.7,2.1,3.1,1.8,5.1C511.5,445.5,500.8,445.5,490.1,445.5z"/>
		<path class="st7" d="M468.5,467.8c-3.6,0-5.7-2-5.8-5.6c0-3.5,2.6-6.7,5.5-6.6c3,0.1,5.9,3.3,5.9,6.5
			C474.2,465.5,472,467.8,468.5,467.8z M471.4,462.2c-0.2-1.7-1.1-2.8-2.7-2.9c-1.8-0.1-3,1-3,2.8c0,1.7,1.3,3.2,2.8,3.2
			C470.1,465.3,471.1,463.8,471.4,462.2z"/>
		<path class="st7" d="M523,461.9c0-3.4,2.7-6.3,5.8-6.3c2.8,0,5.7,3.1,5.7,6.1c0,3.9-2.2,6.1-6.1,6.1
			C525.1,467.8,523,465.5,523,461.9z M528.7,464.9c1.7-0.2,2.8-1,2.9-2.7c0.1-1.8-1-2.9-2.8-3c-1.6-0.1-2.7,1-2.8,2.6
			C525.9,463.7,527,464.6,528.7,464.9z"/>
		<path class="st8" d="M471.4,462.2c-0.3,1.6-1.3,3.1-2.9,3.1c-1.5,0-2.8-1.4-2.8-3.2c0-1.8,1.1-2.9,3-2.8
			C470.3,459.3,471.2,460.5,471.4,462.2z"/>
		<path class="st8" d="M528.7,464.9c-1.7-0.3-2.8-1.3-2.7-3.1c0.1-1.6,1.2-2.6,2.8-2.6c1.8,0.1,2.9,1.2,2.8,3
			C531.5,463.9,530.4,464.7,528.7,464.9z"/>
	</g>
</g>
<g>
	<path class="st9" d="M474.7,416.3l4,28.2h-7.2l-0.4-5.1h-2.5l-0.4,5.1H461l3.6-28.2H474.7z M471,434.5c-0.4-3.2-0.7-7.1-1.1-11.9
		c-0.7,5.4-1.2,9.4-1.3,11.9H471z"/>
</g>
<g>
	<path class="st9" d="M497.2,403.6h7c2.2,0,3.9,0.2,5,0.5c1.1,0.4,2.1,1.1,2.8,2.2c0.7,1.1,1,2.9,1,5.3c0,1.6-0.2,2.8-0.7,3.4
		c-0.5,0.7-1.5,1.1-2.9,1.5c1.6,0.4,2.7,1,3.3,1.9s0.9,2.3,0.9,4.1v2.6c0,1.9-0.2,3.3-0.6,4.2c-0.4,0.9-1.1,1.5-2,1.9
		c-0.9,0.3-2.8,0.5-5.6,0.5h-8.1V403.6z M504.2,408.4v6.3c0.3,0,0.5,0,0.7,0c0.7,0,1.1-0.2,1.3-0.5c0.2-0.4,0.3-1.4,0.3-3
		c0-0.9-0.1-1.5-0.2-1.9s-0.4-0.6-0.6-0.7C505.5,408.5,505,408.4,504.2,408.4z M504.2,419.1v7.9c1,0,1.6-0.2,1.9-0.5
		c0.3-0.3,0.4-1,0.4-2.1v-2.6c0-1.2-0.1-1.9-0.4-2.2C505.9,419.3,505.3,419.1,504.2,419.1z"/>
</g>
<g>
	<path class="st9" d="M547.7,426.8h-7v-4.9c0-1.4-0.1-2.3-0.2-2.7c-0.1-0.4-0.5-0.5-1-0.5c-0.6,0-0.9,0.2-1.1,0.6
		c-0.2,0.4-0.2,1.4-0.2,2.8v13.1c0,1.4,0.1,2.3,0.2,2.7s0.5,0.6,1,0.6c0.5,0,0.9-0.2,1-0.6c0.2-0.4,0.2-1.4,0.2-3v-3.5h7v1.1
		c0,2.9-0.2,5-0.6,6.2c-0.4,1.2-1.3,2.3-2.6,3.2c-1.3,0.9-3,1.4-5,1.4c-2.1,0-3.7-0.4-5.1-1.2c-1.3-0.8-2.2-1.9-2.6-3.2
		c-0.4-1.4-0.6-3.4-0.6-6.2v-8.2c0-2,0.1-3.6,0.2-4.6c0.1-1,0.5-2,1.2-2.9s1.6-1.7,2.7-2.2c1.2-0.5,2.5-0.8,4-0.8
		c2.1,0,3.8,0.4,5.1,1.3c1.3,0.8,2.2,1.9,2.6,3.1s0.6,3.2,0.6,5.8V426.8z"/>
</g>
</svg>
