<svg version="1.1" id="Слой_1" xmlns="http://www.w3.org/2000/svg" x="0" y="0" viewBox="0 0 1280 1024" xml:space="preserve"><style>.st1{fill:#417dfe}.st4{fill:#1b62fb}.st5{fill:#625d6b}</style><path d="M452 452.8c0-15.3.1-30.6-.1-45.9 0-2.1.5-2.3 2.4-2.3 29.7.1 59.5.1 89.2 0 1.9 0 2.4.2 2.4 2.3-.1 30.6-.1 61.2 0 91.8 0 1.9-.5 2.2-2.2 2.2-29.9-.1-59.7-.1-89.6 0-2.3 0-2.2-.8-2.2-2.5.1-15.2.1-30.4.1-45.6zm39.5-17.9c-3.3 3.5-6.7 7-10 10.5-6.8-.1-13.5.8-20.1 2.2-1 .2-2.1.2-2.2 1.5-1.5 2.1-5 2.3-5.1 5.6-2 1.5-2 2.9 0 4.4v2.8c-1.7 0-1.4 1.2-1.3 2.2.1.9.8 1.4 1.7 1.4h4.5c2.5 3.9 5.5 6.4 10.6 5.8 4.1-.4 5.8-3.4 8.3-5.8h41.4c.5.8 1.1 1.5 1.6 2.3 2.8 3.9 7 4.3 10.9 3.2 3.4-1 6-3.7 6.4-7.6 1.2-.3 2.5-.3 3.7-.8 1.4-.6 3.3-1.1 2.5-3.4 0-2.4 0-4.8.1-7.2 0-1 .5-2.1-.6-2.9-.1-2.8-2-3.8-4.2-4.2-2.6-.5-5.3-.6-7.9-.9-2.1-2-4.6-3.8-6.4-6-2.9-3.7-6.7-4.7-11.1-4.7-5.7 0-11.4.1-17.1 0-2.2 0-4.1.4-5.7 1.6z" fill="#fefefe"/><path class="st1" d="M454.1 462v-2.8c1.6-.1 3.6.3 3.6-2.2s-2-2.1-3.6-2.2c.1-3.3 3.6-3.5 5.1-5.6h81.1c-1.2 4.8 2.7 2 4.2 2.9 0 2.4 0 4.8-.1 7.2-2.2-.1-4.2.6-6.2 1.4-1.3-5.5-4.3-8.4-8.7-8.6-6.1-.3-9.8 3.6-10.1 10.8H478c0-3.7-1-7.1-4.2-9.2-5.4-3.6-13.8-1.6-14.7 8.5-1.7-.2-3.4-.2-5-.2zm44.1-7.1h-15.4c-1.6 0-3.4-.2-3.4 2.1 0 2.3 1.7 2.2 3.3 2.2h30.4c1.6 0 3.4.2 3.4-2.1 0-2.3-1.7-2.2-3.3-2.2h-15z"/><path d="M540.3 449.2h-81.1c.1-1.4 1.2-1.3 2.2-1.5 6.6-1.4 13.3-2.3 20.1-2.2h40.9c3.1-.5 6.3-1 9.4-1.4 2.6.3 5.3.4 7.9.9 2.2.4 4.2 1.4 4.2 4.2h-3.6z" fill="#16c5ec"/><path d="M459.1 462.1c.9-10 9.3-12.1 14.7-8.5 3.2 2.1 4.3 5.5 4.2 9.2v2.9c-2.4 2.4-4.1 5.4-8.3 5.8-5.1.5-8.1-2-10.6-5.8v-3.6zm9.4 5.7c3.4 0 5.7-2.3 5.7-5.7 0-3.2-3-6.4-5.9-6.5-2.9-.1-5.6 3.1-5.5 6.6 0 3.5 2.1 5.6 5.7 5.6zm50.8-5c.4-7.2 4-11 10.1-10.8 4.5.2 7.4 3.1 8.7 8.6v2.9c-.4 4-3 6.7-6.4 7.6-3.9 1.1-8.1.7-10.9-3.2-.5-.8-1.1-1.5-1.6-2.3.1-.9.1-1.9.1-2.8zm3.7-.9c0 3.6 2 5.9 5.4 5.9 3.9 0 6.1-2.2 6.1-6.1 0-3-2.8-6.1-5.7-6.1-3 0-5.7 2.9-5.8 6.3z" fill="#504b5a"/><path class="st1" d="M531.7 444c-3.1.5-6.3 1-9.4 1.4.3-2-.5-3.5-1.8-5.1-3.1-4.1-6.9-5.6-11.9-4.9-2.5.3-5 0-7.5.1-.8 0-1.6-.2-2.3.5-2.9 3.2-5.8 6.3-8.7 9.4h-3c1.8-1.9 3.5-3.7 5.3-5.6 2.8-2.8 2.7-3.3-1-5 1.7-1.3 3.5-1.6 5.6-1.6 5.7.1 11.4.1 17.1 0 4.4 0 8.2.9 11.1 4.7 1.9 2.4 4.3 4.1 6.5 6.1z"/><path class="st4" d="M519.3 462.8v2.9h-41.4v-2.9h41.4z"/><path class="st5" d="M491.5 434.9c3.7 1.7 3.7 2.2 1 5-1.8 1.8-3.6 3.7-5.3 5.6h-5.7c3.3-3.6 6.6-7.1 10-10.6z"/><path class="st4" d="M459.1 462.1v3.6h-4.5c-.9 0-1.6-.5-1.7-1.4-.1-1-.4-2.2 1.3-2.2 1.5-.1 3.2-.1 4.9 0zm-5-7.3c1.6.1 3.6-.3 3.6 2.2s-2 2.1-3.6 2.2c-2-1.4-2-2.9 0-4.4zm84.1 8.7v-2.9c2-.7 4-1.4 6.2-1.4.8 2.3-1.1 2.8-2.5 3.4-1.1.5-2.4.6-3.7.9z"/><path d="M540.3 449.2c1.2 0 2.4 0 3.6-.1 1.1.8.6 1.9.6 2.9-1.5-.8-5.5 2-4.2-2.8z" fill="#77e1f7"/><path class="st4" d="M498.2 454.9h15c1.6 0 3.3-.1 3.3 2.2 0 2.3-1.8 2.1-3.4 2.1h-30.4c-1.6 0-3.3.1-3.3-2.2 0-2.3 1.9-2.1 3.4-2.1h15.4z"/><path class="st5" d="M490.1 445.5c2.9-3.1 5.8-6.3 8.7-9.4.7-.8 1.5-.5 2.3-.5 2.5 0 5.1.3 7.5-.1 5-.7 8.8.9 11.9 4.9 1.3 1.7 2.1 3.1 1.8 5.1h-32.2z"/><path d="M468.5 467.8c-3.6 0-5.7-2-5.8-5.6 0-3.5 2.6-6.7 5.5-6.6 3 .1 5.9 3.3 5.9 6.5.1 3.4-2.1 5.7-5.6 5.7zm2.9-5.6c-.2-1.7-1.1-2.8-2.7-2.9-1.8-.1-3 1-3 2.8 0 1.7 1.3 3.2 2.8 3.2 1.6 0 2.6-1.5 2.9-3.1zm51.6-.3c0-3.4 2.7-6.3 5.8-6.3 2.8 0 5.7 3.1 5.7 6.1 0 3.9-2.2 6.1-6.1 6.1-3.3 0-5.4-2.3-5.4-5.9zm5.7 3c1.7-.2 2.8-1 2.9-2.7.1-1.8-1-2.9-2.8-3-1.6-.1-2.7 1-2.8 2.6-.1 1.9 1 2.8 2.7 3.1z" fill="#dff3fe"/><path d="M471.4 462.2c-.3 1.6-1.3 3.1-2.9 3.1-1.5 0-2.8-1.4-2.8-3.2 0-1.8 1.1-2.9 3-2.8 1.6 0 2.5 1.2 2.7 2.9zm57.3 2.7c-1.7-.3-2.8-1.3-2.7-3.1.1-1.6 1.2-2.6 2.8-2.6 1.8.1 2.9 1.2 2.8 3-.1 1.7-1.2 2.5-2.9 2.7z" fill="#badcfe"/><path d="M474.7 416.3l4 28.2h-7.2l-.4-5.1h-2.5l-.4 5.1H461l3.6-28.2h10.1zm-3.7 18.2c-.4-3.2-.7-7.1-1.1-11.9-.7 5.4-1.2 9.4-1.3 11.9h2.4zm26.2-30.9h7c2.2 0 3.9.2 5 .5 1.1.4 2.1 1.1 2.8 2.2.7 1.1 1 2.9 1 5.3 0 1.6-.2 2.8-.7 3.4-.5.7-1.5 1.1-2.9 1.5 1.6.4 2.7 1 3.3 1.9s.9 2.3.9 4.1v2.6c0 1.9-.2 3.3-.6 4.2-.4.9-1.1 1.5-2 1.9-.9.3-2.8.5-5.6.5h-8.1v-28.1zm7 4.8v6.3h.7c.7 0 1.1-.2 1.3-.5.2-.4.3-1.4.3-3 0-.9-.1-1.5-.2-1.9s-.4-.6-.6-.7c-.2-.1-.7-.2-1.5-.2zm0 10.7v7.9c1 0 1.6-.2 1.9-.5.3-.3.4-1 .4-2.1v-2.6c0-1.2-.1-1.9-.4-2.2-.2-.3-.8-.5-1.9-.5zm43.5 7.7h-7v-4.9c0-1.4-.1-2.3-.2-2.7-.1-.4-.5-.5-1-.5-.6 0-.9.2-1.1.6-.2.4-.2 1.4-.2 2.8v13.1c0 1.4.1 2.3.2 2.7s.5.6 1 .6.9-.2 1-.6c.2-.4.2-1.4.2-3v-3.5h7v1.1c0 2.9-.2 5-.6 6.2-.4 1.2-1.3 2.3-2.6 3.2-1.3.9-3 1.4-5 1.4-2.1 0-3.7-.4-5.1-1.2-1.3-.8-2.2-1.9-2.6-3.2-.4-1.4-.6-3.4-.6-6.2v-8.2c0-2 .1-3.6.2-4.6.1-1 .5-2 1.2-2.9s1.6-1.7 2.7-2.2c1.2-.5 2.5-.8 4-.8 2.1 0 3.8.4 5.1 1.3 1.3.8 2.2 1.9 2.6 3.1s.6 3.2.6 5.8v2.6z" fill="#1b62fc"/></svg>