<svg version="1.1" id="Capa_1" xmlns="http://www.w3.org/2000/svg" x="0" y="0" viewBox="0 0 92 81.8" xml:space="preserve"><style>.st2{fill:#e1e4fb}.st3{fill:#c5c9f7}.st5{fill:#495a79}.st6{fill:#42516d}.st7{fill:#3f7eff}.st8{fill:#1462fc}</style><path d="M82.9 34H9.1C4.7 34 1 37.1 1 41v33c0 3.9 3.7 7 8.1 7h73.8c4.4 0 8.1-3.1 8.1-7V41c0-3.9-3.7-7-8.1-7z" fill="#18dbf8"/><path d="M91 41v33c0 3.9-3.7 7-8.1 7H46V34h36.9c4.4 0 8.1 3.1 8.1 7z" fill="#00c2f0"/><path class="st2" d="M77.6 43.3H14.4c-1.5 0-2.6 1-2.6 2.3v23.6c0 1.3 1.2 2.3 2.6 2.3h63.3c1.5 0 2.6-1 2.6-2.3V45.7c0-1.3-1.2-2.4-2.7-2.4z"/><path class="st3" d="M80.3 45.7v23.6c0 1.3-1.2 2.3-2.6 2.3H46V43.3h31.6c1.5 0 2.7 1.1 2.7 2.4z"/><path class="st3" d="M17 48v18.9h58V48H17z"/><path fill="#a8aff1" d="M46 48h29v18.9H46z"/><path class="st2" d="M35.5 71.6c-1.5 0-2.6-1-2.6-2.3V45.7c0-1.3 1.2-2.3 2.6-2.3s2.6 1 2.6 2.3v23.6c0 1.3-1.2 2.3-2.6 2.3z"/><path class="st3" d="M56.5 71.6c-1.5 0-2.6-1-2.6-2.3V45.7c0-1.3 1.2-2.3 2.6-2.3s2.6 1 2.6 2.3v23.6c.1 1.3-1.1 2.3-2.6 2.3z"/><path class="st5" d="M24.9 62.3c-1.5 0-2.6-1-2.6-2.3v-4.8c0-1.3 1.2-2.3 2.6-2.3s2.6 1 2.6 2.3V60c0 1.2-1.1 2.3-2.6 2.3z"/><path class="st6" d="M67.1 62.3c-1.5 0-2.6-1-2.6-2.3v-4.8c0-1.3 1.2-2.3 2.6-2.3s2.6 1 2.6 2.3V60c0 1.2-1.1 2.3-2.6 2.3z"/><path class="st7" d="M61.1 10.7c-.3-.8-1.1-1.5-2.1-1.6L51.9 8l-3.4-5.8C48 1.4 46.9 1 46 1c-.9 0-1.8.4-2.3 1.2L40.3 8l-7.2 1.1c-.9.1-1.7.8-2.1 1.6-.3.8-.1 1.7.6 2.3l5.1 4.7-1.1 6.5c-.1.8.3 1.7 1.1 2.3.8.5 1.8.6 2.7.2l6.5-2.8h.1l6.6 2.9c.8.4 1.9.3 2.7-.2.8-.5 1.2-1.4 1.1-2.3l-1.1-6.5 5.1-4.7c.8-.7 1.1-1.6.7-2.4z"/><path class="st8" d="M60.5 13l-5.1 4.7 1.1 6.5c.2.8-.3 1.7-1.1 2.3-.8.5-1.8.6-2.7.2l-6.6-2.9H46V1c.9 0 2 .4 2.4 1.2L51.9 8l7.2 1.1c.9.1 1.7.8 2.1 1.6s0 1.7-.7 2.3z"/><path class="st7" d="M90.4 16.1c-.3-.8-.9-1.4-1.8-1.5L83 13.3l-3-4.2c-.5-.7-1.4-1-2.3-1-.8 0-1.7.4-2.2 1l-3 4.2-5.5 1.3c-.8.2-1.6.8-1.8 1.5-.3.8-.1 1.6.5 2.2l3.6 3.8-.4 5c-.1.8.4 1.6 1.1 2.1s1.7.6 2.5.3l5.1-1.8h.1l5.2 1.8c.8.3 2 .2 2.7-.3.7-.5 1.1-1.3 1.1-2.1l-.4-5 3.6-3.8c.6-.6.8-1.4.5-2.2z"/><path class="st8" d="M89.9 18.3l-3.6 3.8.4 5c.1.8-.4 1.6-1.1 2.1-.7.5-1.9.6-2.7.3l-5.2-1.8h-.1V8c.9 0 1.8.3 2.3 1l3 4.2 5.6 1.3c.9.2 1.6.8 1.8 1.5.4.9.2 1.7-.4 2.3z"/><path class="st7" d="M27 16.1c-.3-.8-.9-1.4-1.8-1.5l-5.4-1.3-3-4.2c-.5-.7-1.4-1-2.3-1-.8 0-1.7.4-2.2 1l-3 4.2-5.6 1.3c-.8.2-1.6.8-1.8 1.5-.3.8-.1 1.6.5 2.2L6 22.2l-.4 5c-.1.8.4 1.6 1.1 2.1s1.7.6 2.5.3l5.1-1.8h.1l5.2 1.8c.8.3 1.8.2 2.5-.3s1.1-1.3 1.1-2.1l-.4-5 3.6-3.8c.7-.7.9-1.5.6-2.3z"/><path class="st8" d="M26.5 18.3l-3.6 3.8.4 5c.1.8-.4 1.6-1.1 2.1-.7.5-1.7.6-2.5.3l-5.2-1.8h-.1V8c.9 0 1.8.3 2.3 1l3 4.2 5.4 1.3c.9.2 1.6.8 1.8 1.5.4.9.2 1.7-.4 2.3z"/><path class="st5" d="M48.6 55.1v4.8c0 1.3-1.2 2.3-2.6 2.3s-2.6-1-2.6-2.3v-4.8c0-1.3 1.2-2.3 2.6-2.3s2.6 1 2.6 2.3z"/><path class="st6" d="M48.6 55.1v4.8c0 1.3-1.2 2.3-2.6 2.3v-9.5c1.5 0 2.6 1.1 2.6 2.4z"/></svg>