<svg version="1.1" id="Layer_1" xmlns="http://www.w3.org/2000/svg" x="0" y="0" viewBox="0 0 92 82.5" xml:space="preserve"><style>.st4{fill:#385656}</style><path d="M59.3 14.4c-1.2 0-2.1-.6-2.1-1.4V7.4c0-.8.9-1.4 2.1-1.4 1.2 0 2.1.6 2.1 1.4V13c0 .8-.9 1.4-2.1 1.4zm-26.7 0c-1.2 0-2.1-.6-2.1-1.4V7.4c0-.8.9-1.4 2.1-1.4s2.1.6 2.1 1.4V13c0 .8-.9 1.4-2.1 1.4z" fill="#00c2f0"/><path d="M86.8 48.1H5.2c-.8 0-1.4.6-1.4 1.4v23.9c0 3.9 3.1 7 7 7h70.3c3.9 0 7-3.1 7-7V49.5c.1-.8-.5-1.4-1.3-1.4z" fill="#3f7eff"/><path d="M84 13H8c-3.9 0-7 3.1-7 7v24.4c0 2.8 1.7 5.4 4.3 6.5 11.6 4.9 23.8 7.7 36.5 8.2h8.5c12.6-.5 24.8-3.3 36.4-8.2 2.6-1.1 4.3-3.7 4.3-6.5V20c0-3.9-3.1-7-7-7z" fill="#1462fc"/><path d="M62.9 43.9c0-3.1-2.5-5.6-5.6-5.6H34.8c-3.1 0-5.6 2.5-5.6 5.6v13.9c4.2.7 8.4 1.1 12.7 1.3h8.5c4.2-.2 8.4-.6 12.6-1.3V43.9z" fill="#18dbf8"/><path class="st4" d="M47.4 63.5h-2.8c-1.5 0-2.8-1.3-2.8-2.8v-5.6c0-1.5 1.3-2.8 2.8-2.8h2.8c1.5 0 2.8 1.3 2.8 2.8v5.6c0 1.6-1.2 2.8-2.8 2.8z"/><path d="M61.5 8c-.3 0-.5 0-.8-.1C56.4 6.7 51.4 6 46 6s-10.4.7-14.7 1.9c-1.5.5-3.1-.4-3.5-1.9-.4-1.5.4-3.1 1.9-3.5C34.5 1.1 40.1.4 46 .4s11.5.8 16.3 2.2c1.5.4 2.3 2 1.9 3.5-.4 1.2-1.5 1.9-2.7 1.9z" fill="#bcdeff"/><path class="st4" d="M48.8 52.3h-5.6c-.8 0-1.4.6-1.4 1.4v2.8c0 1.5 1.3 2.8 2.8 2.8h2.8c1.5 0 2.8-1.3 2.8-2.8v-2.8c0-.8-.6-1.4-1.4-1.4z"/></svg>